<svg width="140" height="27" viewBox="0 0 140 27" fill="none" xmlns="http://www.w3.org/2000/svg">
<path fill-rule="evenodd" clip-rule="evenodd" d="M4.88499 12.6423L12.1007 17.4953C12.3136 17.6443 12.5371 17.8359 12.7712 18.07C13.0054 18.3042 13.1224 18.5809 13.1224 18.9002V21.6141C13.1224 21.8056 13.0586 21.9653 12.9309 22.093C12.8032 22.2207 12.6435 22.2846 12.4519 22.2846C12.4094 22.2846 12.3615 22.2792 12.3083 22.2686C12.2551 22.2579 12.1859 22.2313 12.1007 22.1888L0.925914 14.6537C0.627917 14.4622 0.399102 14.2759 0.23946 14.095C0.0798194 13.9141 0 13.6533 0 13.3128V11.9718C0 11.6312 0.0798194 11.3705 0.23946 11.1895C0.399102 11.0086 0.627917 10.8224 0.925914 10.6308L12.1007 3.09578C12.1859 3.05321 12.2551 3.02661 12.3083 3.01596C12.3615 3.00532 12.4094 3 12.4519 3C12.6435 3 12.8032 3.06386 12.9309 3.19157C13.0586 3.31928 13.1224 3.47892 13.1224 3.67049V6.38437C13.1224 6.70366 13.0054 6.98036 12.7712 7.2145C12.5371 7.44864 12.3136 7.64021 12.1007 7.78921L4.88499 12.6423ZM26.4906 7.78921C26.2777 7.64021 26.0542 7.44864 25.8201 7.2145C25.5859 6.98036 25.4689 6.70366 25.4689 6.38437V3.67049C25.4689 3.47892 25.5327 3.31928 25.6604 3.19157C25.7882 3.06386 25.9478 3 26.1394 3C26.1819 3 26.2298 3.00532 26.283 3.01596C26.3363 3.02661 26.4054 3.05321 26.4906 3.09578L37.6654 10.6308C37.9634 10.8224 38.1922 11.0086 38.3518 11.1895C38.5115 11.3705 38.5913 11.6312 38.5913 11.9718V13.3128C38.5913 13.6533 38.5115 13.9141 38.3518 14.095C38.1922 14.2759 37.9634 14.4622 37.6654 14.6537L26.4906 22.1888C26.4054 22.2313 26.3363 22.2579 26.283 22.2686C26.2298 22.2792 26.1819 22.2846 26.1394 22.2846C25.9478 22.2846 25.7882 22.2207 25.6604 22.093C25.5327 21.9653 25.4689 21.8056 25.4689 21.6141V18.9002C25.4689 18.5809 25.5859 18.3042 25.8201 18.07C26.0542 17.8359 26.2777 17.6443 26.4906 17.4953L33.7063 12.6423L26.4906 7.78921Z" fill="black"/>
<path d="M49.856 23C49.6693 23 49.5107 22.9347 49.38 22.804C49.2493 22.6733 49.184 22.5147 49.184 22.328V4.1C49.184 3.89467 49.24 3.72667 49.352 3.596C49.4827 3.46533 49.6507 3.4 49.856 3.4H57.976C60.16 3.4 61.784 3.88533 62.848 4.856C63.9307 5.808 64.472 7.11467 64.472 8.776C64.472 9.74667 64.2293 10.5773 63.744 11.268C63.2773 11.94 62.7267 12.4253 62.092 12.724C62.876 13.0787 63.5293 13.6573 64.052 14.46C64.5933 15.2627 64.864 16.1773 64.864 17.204C64.864 18.94 64.276 20.34 63.1 21.404C61.9427 22.468 60.3093 23 58.2 23H49.856ZM57.472 11.436C58.4427 11.436 59.18 11.2027 59.684 10.736C60.188 10.2693 60.44 9.644 60.44 8.86C60.44 8.05733 60.188 7.44133 59.684 7.012C59.18 6.564 58.4427 6.34 57.472 6.34H53.076V11.436H57.472ZM57.752 20.032C58.7227 20.032 59.4787 19.7707 60.02 19.248C60.5613 18.7067 60.832 18.0253 60.832 17.204C60.832 16.364 60.5613 15.6827 60.02 15.16C59.4787 14.6187 58.7227 14.348 57.752 14.348H53.076V20.032H57.752ZM74.6513 23C74.4646 23 74.306 22.9347 74.1753 22.804C74.0446 22.6733 73.9793 22.5147 73.9793 22.328V4.1C73.9793 3.89467 74.0353 3.72667 74.1473 3.596C74.278 3.46533 74.446 3.4 74.6513 3.4H81.9033C84.1806 3.4 85.9633 3.932 87.2513 4.996C88.558 6.06 89.2113 7.572 89.2113 9.532C89.2113 10.8947 88.8753 12.0427 88.2033 12.976C87.55 13.8907 86.6353 14.5533 85.4593 14.964L89.5473 22.104C89.6033 22.216 89.6313 22.3187 89.6313 22.412C89.6313 22.58 89.566 22.72 89.4353 22.832C89.3233 22.944 89.1926 23 89.0433 23H86.4953C86.1966 23 85.9633 22.9347 85.7953 22.804C85.646 22.6733 85.506 22.4867 85.3753 22.244L81.7633 15.608H77.8713V22.328C77.8713 22.5147 77.806 22.6733 77.6753 22.804C77.5633 22.9347 77.4046 23 77.1993 23H74.6513ZM81.8193 12.444C82.9393 12.444 83.7793 12.192 84.3393 11.688C84.918 11.184 85.2073 10.456 85.2073 9.504C85.2073 8.552 84.918 7.81467 84.3393 7.292C83.7793 6.76933 82.9393 6.508 81.8193 6.508H77.8713V12.444H81.8193ZM99.0912 23C98.9045 23 98.7458 22.9347 98.6152 22.804C98.4845 22.6733 98.4192 22.5147 98.4192 22.328V4.1C98.4192 3.89467 98.4752 3.72667 98.5872 3.596C98.7178 3.46533 98.8858 3.4 99.0912 3.4H105.923C111.411 3.4 114.211 5.93867 114.323 11.016C114.36 12.0987 114.379 12.8267 114.379 13.2C114.379 13.5547 114.36 14.2733 114.323 15.356C114.248 17.9693 113.548 19.9013 112.223 21.152C110.898 22.384 108.844 23 106.063 23H99.0912ZM105.923 19.78C107.491 19.78 108.62 19.4347 109.311 18.744C110.002 18.0347 110.366 16.8773 110.403 15.272C110.44 14.152 110.459 13.452 110.459 13.172C110.459 12.8733 110.44 12.1827 110.403 11.1C110.366 9.56933 109.974 8.44 109.227 7.712C108.499 6.984 107.351 6.62 105.783 6.62H102.311V19.78H105.923ZM131.323 23.28C128.765 23.28 126.768 22.6173 125.331 21.292C123.912 19.9667 123.156 18.1187 123.063 15.748C123.044 15.2067 123.035 14.3387 123.035 13.144C123.035 11.9493 123.044 11.0813 123.063 10.54C123.156 8.22533 123.921 6.41467 125.359 5.108C126.815 3.78267 128.803 3.12 131.323 3.12C133.04 3.12 134.515 3.40933 135.747 3.988C136.979 4.56667 137.912 5.29467 138.547 6.172C139.181 7.03067 139.517 7.88 139.555 8.72V8.776C139.555 8.92533 139.499 9.056 139.387 9.168C139.275 9.26133 139.135 9.308 138.967 9.308H136.083C135.896 9.308 135.756 9.28 135.663 9.224C135.569 9.14933 135.485 9.028 135.411 8.86C135.149 8.16933 134.692 7.58133 134.039 7.096C133.385 6.592 132.48 6.34 131.323 6.34C130.016 6.34 128.989 6.69467 128.243 7.404C127.515 8.11333 127.123 9.20533 127.067 10.68C127.048 11.2213 127.039 12.0427 127.039 13.144C127.039 14.2267 127.048 15.048 127.067 15.608C127.179 18.576 128.616 20.06 131.379 20.06C132.704 20.06 133.768 19.7053 134.571 18.996C135.373 18.268 135.775 17.1947 135.775 15.776V14.908H132.359C132.153 14.908 131.985 14.8427 131.855 14.712C131.743 14.5813 131.687 14.4133 131.687 14.208V12.724C131.687 12.5187 131.743 12.3507 131.855 12.22C131.985 12.0893 132.153 12.024 132.359 12.024H139.051C139.256 12.024 139.415 12.0893 139.527 12.22C139.657 12.3507 139.723 12.5187 139.723 12.724V15.664C139.723 17.2133 139.377 18.5667 138.687 19.724C138.015 20.8627 137.044 21.74 135.775 22.356C134.505 22.972 133.021 23.28 131.323 23.28Z" fill="black"/>
</svg>
