<svg width="367" height="357" viewBox="0 0 367 357" fill="none" xmlns="http://www.w3.org/2000/svg">
<g clip-path="url(#clip0)">
<path opacity="0.18" d="M82.8334 44.5377C63.458 52.2946 42.7501 57.638 25.6856 69.6455C8.62113 81.6531 -4.28378 102.912 1.34036 123.007C5.70402 138.569 20.2536 150.739 20.9138 166.907C21.442 179.797 12.9188 191.054 8.39304 203.133C-0.748439 227.539 7.15657 255.967 23.3327 276.38C39.5089 296.792 62.8278 310.373 86.7168 320.771C143.33 345.337 205.378 354.683 266.713 347.884C284.996 345.831 303.441 342.229 319.647 333.523C335.854 324.818 349.713 310.391 354.245 292.56C360.409 268.334 348.879 242.188 355.181 217.999C357.648 208.513 362.762 199.849 364.941 190.291C370.181 167.255 357.414 143.726 341.172 126.579C324.929 109.433 304.882 96.0081 290.032 77.6365C279.744 64.9145 272.205 50.1152 261.629 37.6334C240.849 13.0719 207.291 -1.42117 175.094 0.115797C143.108 1.63475 112.995 32.4521 82.8334 44.5377Z" fill="#68E1FD"/>
<path d="M71.9073 324.582L72.8257 328.749C66.8594 333.077 59.2185 334.11 52.0398 335.773C44.8611 337.436 37.2502 340.324 33.5468 346.694C38.8828 353.61 48.8226 354.445 57.5559 354.673C127.983 356.51 198.443 356.762 268.938 355.43C291.303 355.003 313.793 354.409 335.744 350.104C337.316 349.798 339.075 349.342 339.861 347.943C341.206 345.541 338.661 342.858 336.338 341.453C328.633 336.836 319.803 334.441 310.822 334.53C307.449 334.572 303.019 334.212 302.245 330.928C301.981 329.727 302.341 328.527 302.299 327.326C302.203 324.324 299.628 321.922 296.801 321.022C293.974 320.121 290.913 320.421 287.953 320.692C232.186 326.059 175.561 321.892 119.607 319.035C110.736 318.578 102.393 323.441 93.5816 322.313C85.3104 321.268 79.3262 319.647 71.9073 324.582Z" fill="url(#paint0_linear)"/>
<path d="M274.226 22.5382H91.919C80.31 22.5382 70.899 31.9515 70.899 43.5634V302.746C70.899 314.358 80.31 323.772 91.919 323.772H274.226C285.835 323.772 295.246 314.358 295.246 302.746V43.5634C295.246 31.9515 285.835 22.5382 274.226 22.5382Z" fill="#68E1FD"/>
<path d="M274.226 22.5382H91.919C80.31 22.5382 70.899 31.9515 70.899 43.5634V302.746C70.899 314.358 80.31 323.772 91.919 323.772H274.226C285.835 323.772 295.246 314.358 295.246 302.746V43.5634C295.246 31.9515 285.835 22.5382 274.226 22.5382Z" fill="url(#paint1_linear)"/>
<path d="M185.201 227.573L68.2881 226.835C63.8556 226.811 59.5952 228.549 56.4435 231.666C53.2918 234.784 51.5071 239.026 51.4817 243.459L51.3736 260.69C51.3594 262.887 51.778 265.066 52.6056 267.102C53.4331 269.137 54.6534 270.99 56.1968 272.553C57.7401 274.117 59.5763 275.362 61.6005 276.216C63.6246 277.07 65.7972 277.516 67.994 277.531L178.868 278.221C186.183 278.278 193.193 281.158 198.436 286.26L201.539 289.262L201.713 261.645L201.755 255.04L201.821 244.402C201.845 239.968 200.107 235.707 196.991 232.554C193.874 229.402 189.633 227.617 185.201 227.591V227.573Z" fill="url(#paint2_linear)"/>
<path d="M280.307 57.18V295.446C280.303 300.394 278.337 305.138 274.839 308.637C271.341 312.135 266.598 314.102 261.651 314.106H105.754C103.305 314.106 100.88 313.623 98.6175 312.686C96.3549 311.748 94.299 310.374 92.5673 308.642C90.8356 306.91 89.4619 304.853 88.5247 302.59C87.5875 300.327 87.1051 297.901 87.1051 295.452V57.18C87.1043 54.7304 87.5859 52.3045 88.5224 50.0411C89.4589 47.7776 90.8319 45.7208 92.5631 43.9881C94.2942 42.2553 96.3496 40.8807 98.612 39.9425C100.874 39.0043 103.299 38.5211 105.748 38.5203H261.633C264.085 38.5187 266.512 39.0001 268.777 39.9371C271.042 40.874 273.1 42.2482 274.834 43.981C276.569 45.7138 277.944 47.7713 278.883 50.036C279.822 52.3007 280.306 54.7283 280.307 57.18Z" fill="#68E1FD"/>
<path opacity="0.69" d="M280.307 57.18V295.446C280.303 300.394 278.337 305.138 274.839 308.637C271.341 312.135 266.598 314.102 261.651 314.106H105.754C103.305 314.106 100.88 313.623 98.6175 312.686C96.3549 311.748 94.299 310.374 92.5673 308.642C90.8356 306.91 89.4619 304.853 88.5247 302.59C87.5875 300.327 87.1051 297.901 87.1051 295.452V57.18C87.1043 54.7304 87.5859 52.3045 88.5224 50.0411C89.4589 47.7776 90.8319 45.7208 92.5631 43.9881C94.2942 42.2553 96.3496 40.8807 98.612 39.9425C100.874 39.0043 103.299 38.5211 105.748 38.5203H261.633C264.085 38.5187 266.512 39.0001 268.777 39.9371C271.042 40.874 273.1 42.2482 274.834 43.981C276.569 45.7138 277.944 47.7713 278.883 50.036C279.822 52.3007 280.306 54.7283 280.307 57.18Z" fill="url(#paint3_linear)"/>
<path opacity="0.6" d="M184.012 66.822C184.558 64.4205 185.104 62.019 184.888 59.5694C183.015 61.4938 180.455 62.597 177.77 62.6374C177.451 62.6009 177.129 62.6616 176.845 62.8115C176.662 62.9837 176.524 63.1975 176.441 63.4348C176.359 63.6721 176.335 63.9258 176.371 64.1743C176.371 67.1222 176.323 70.2321 174.817 72.7597C173.31 75.2873 170.717 76.7222 168.01 77.5627C162.008 79.4719 155.531 78.6374 149.319 77.6768C147.896 77.4547 146.408 77.2025 145.279 76.314C143.749 75.1132 143.226 72.9759 143.431 71.0426C143.635 69.1094 144.463 67.3023 145.231 65.5012C146.432 62.6494 147.41 59.6055 147.092 56.5375C146.774 53.4696 144.823 50.3897 141.834 49.6332C141.206 49.4419 140.54 49.4149 139.899 49.5547C139.258 49.6945 138.664 49.9965 138.173 50.4317C137.702 50.9566 137.339 51.5685 137.104 52.2328C134.558 58.4999 132.909 65.0951 132.206 71.8231C128.737 71.4989 125.43 73.264 122.002 73.7443C119.8 74.0565 89.35 74.2126 87.1351 74.0625C87.1351 74.0625 86.823 77.5627 87.6453 78.6915C88.4677 79.8202 92.9334 79.8382 94.2479 80.3365C103.605 83.9388 113.899 83.7046 123.875 84.6172C140.91 86.1722 161.383 91.6236 176.425 80.6247C181.101 77.2025 182.764 72.3094 184.012 66.822Z" fill="url(#paint4_linear)"/>
<path opacity="0.6" d="M207.517 147.447C207.811 141.725 206.107 136.076 203.802 130.828C201.497 125.581 198.598 120.622 196.305 115.369C195.705 114.042 195.296 112.229 196.461 111.37C196.821 112.271 198.22 112.012 198.916 111.334C199.612 110.656 200.116 109.683 201.083 109.461C202.463 111.691 203.645 114.037 204.618 116.473L211.437 132.083C212.163 133.752 212.925 135.475 214.3 136.664C216.43 138.501 219.564 138.675 222.295 138.609C224.106 138.56 225.911 138.379 227.697 138.069C229.696 137.721 231.958 137.144 233.135 135.439C234.936 132.798 233.219 129.045 234.335 126.037C234.862 124.788 235.711 123.703 236.796 122.891C238.183 121.769 240.091 120.892 241.712 121.642C242.516 122.093 243.192 122.742 243.675 123.528C247.876 129.387 250.223 136.568 255.307 141.665C258.23 141.634 261.033 140.502 263.158 138.495C265.211 136.544 266.76 134.13 268.362 131.807C271.123 127.82 274.142 124.002 277.162 120.232L280.415 116.143C280.505 116.007 280.635 115.902 280.787 115.843C281.159 115.747 281.387 116.221 281.495 116.599C282.696 122.117 279.058 127.472 275.157 131.543C272.156 134.683 268.716 137.715 266.604 141.431C266.429 141.737 266.317 142.075 266.273 142.424C266.23 142.774 266.255 143.129 266.349 143.468C266.443 143.808 266.602 144.126 266.819 144.404C267.036 144.682 267.305 144.914 267.612 145.087C267.948 145.278 268.32 145.395 268.704 145.429C275.823 146.03 283.11 144.631 290.277 145.501C292.443 145.766 294.982 146.576 295.336 148.864C295.404 149.442 295.33 150.029 295.12 150.572C294.911 151.116 294.574 151.601 294.136 151.986C292.611 153.438 290.535 153.727 288.518 153.973C265.811 156.765 242.901 157.575 220.044 158.326C219.143 158.408 218.236 158.332 217.361 158.103C215.464 157.503 214.36 155.558 213.285 153.901C211.683 151.483 209.74 149.309 207.517 147.447Z" fill="url(#paint5_linear)"/>
<path d="M324.033 164.149V179.375C324.044 181.306 323.675 183.221 322.946 185.01C322.217 186.799 321.143 188.427 319.786 189.801C318.428 191.174 316.813 192.267 315.033 193.016C313.253 193.766 311.343 194.157 309.412 194.168H212.403C205.983 194.146 199.81 196.645 195.212 201.127L192.487 203.762V164.137C192.479 161.012 193.463 157.964 195.296 155.433C197.13 152.902 199.719 151.018 202.691 150.052C204.128 149.59 205.629 149.355 207.139 149.356H309.418C311.349 149.367 313.258 149.758 315.038 150.508C316.818 151.257 318.432 152.35 319.789 153.724C321.147 155.098 322.22 156.725 322.948 158.514C323.676 160.303 324.045 162.218 324.033 164.149Z" fill="url(#paint6_linear)"/>
<path d="M165.549 92.1878L168.07 130.78H165.549L162.872 128.204C158.322 123.84 151.396 122.279 145.099 122.279H49.7349C45.9144 122.279 42.2503 120.761 39.5487 118.058C36.8472 115.356 35.3295 111.691 35.3295 107.87L36.2238 92.1878C36.2238 88.3663 37.7415 84.7013 40.4431 81.9991C43.1446 79.2969 46.8087 77.7788 50.6293 77.7788H151.168C153.511 77.7735 155.82 78.3426 157.893 79.4363C159.966 80.53 161.739 82.115 163.058 84.0527C164.697 86.4475 165.566 89.2857 165.549 92.1878Z" fill="url(#paint7_linear)"/>
<path d="M168.064 92.1879V130.78L165.381 128.205C160.841 123.839 154.788 121.402 148.49 121.402H53.0962C49.2756 121.402 45.6115 119.884 42.9099 117.182C40.2084 114.48 38.6907 110.815 38.6907 106.993V92.1879C38.6907 88.3663 40.2084 84.7013 42.9099 81.9991C45.6115 79.2969 49.2756 77.7788 53.0962 77.7788H153.658C156.002 77.7746 158.311 78.3441 160.383 79.4377C162.456 80.5314 164.229 82.1158 165.549 84.0527C167.196 86.4449 168.074 89.2832 168.064 92.1879Z" fill="white"/>
<path d="M324.033 162.912V177.712C324.033 181.533 322.516 185.198 319.814 187.9C317.112 190.603 313.448 192.121 309.628 192.121H214.282C207.983 192.122 201.928 194.559 197.385 198.923L194.684 201.481V162.912C194.684 159.101 196.194 155.445 198.882 152.745C201.571 150.044 205.219 148.519 209.03 148.503H309.646C313.463 148.508 317.123 150.028 319.82 152.73C322.518 155.432 324.033 159.094 324.033 162.912Z" fill="white"/>
<path d="M218.549 145.574C217.949 144.373 216.988 143.46 216.4 142.296C215.14 139.81 215.878 136.724 217.367 134.371C217.967 133.392 218.747 132.449 218.969 131.315C219.227 129.982 218.711 128.529 219.269 127.292C219.726 126.295 220.758 125.719 221.67 125.083C223.057 124.092 224.257 122.795 225.824 122.135C227.39 121.474 229.563 121.715 230.332 123.24C231.778 122.525 233.609 123.174 234.689 124.362C235.77 125.551 236.25 127.172 236.58 128.745C236.863 130.55 237.276 132.332 237.816 134.076C238.453 135.787 239.569 137.414 241.22 138.189C244.425 139.69 248.891 137.745 251.424 140.242C252.72 141.533 253.182 143.814 254.941 144.307C255.847 144.559 256.832 144.229 257.732 144.469C259.287 144.889 259.929 146.768 259.965 148.377C259.991 149.955 259.692 151.521 259.085 152.977C258.479 154.434 257.579 155.75 256.442 156.843C255.325 157.905 253.897 158.896 253.668 160.445C253.644 161.23 253.705 162.015 253.849 162.786C253.934 163.824 253.718 164.865 253.227 165.783C252.735 166.7 251.989 167.457 251.077 167.96C250.166 168.464 249.129 168.694 248.09 168.621C247.052 168.549 246.056 168.178 245.223 167.553C243.951 166.605 242.876 165.014 241.292 165.086C240.599 165.183 239.94 165.447 239.371 165.854C238.125 166.706 236.745 167.345 235.289 167.746C234.558 167.938 233.791 167.95 233.054 167.781C232.317 167.612 231.632 167.266 231.058 166.773C230.158 165.89 229.821 164.606 229.383 163.417C228.675 161.496 227.384 159.52 225.374 159.136C224.509 158.974 223.615 159.136 222.751 158.992C216.892 158.049 220.332 149.17 218.549 145.574Z" fill="#3F3D56"/>
<path d="M265.463 125.395C266.921 123.071 268.022 120.541 268.728 117.89C269.036 116.779 269.544 115.733 270.229 114.804C270.296 114.711 270.392 114.643 270.503 114.61C270.613 114.577 270.731 114.582 270.838 114.623C270.946 114.664 271.036 114.739 271.097 114.837C271.157 114.935 271.183 115.05 271.171 115.164L270.931 117.566C272.132 116.173 273.554 113.621 275.565 111.502C275.62 111.448 275.694 111.417 275.772 111.417C275.849 111.417 275.924 111.448 275.979 111.502C276.017 111.542 276.043 111.592 276.055 111.646C276.067 111.7 276.063 111.756 276.045 111.808L274.424 115.873C274.418 115.893 274.416 115.915 274.418 115.936C274.419 115.958 274.426 115.979 274.436 115.998C274.446 116.017 274.459 116.033 274.476 116.047C274.493 116.061 274.512 116.071 274.532 116.077C274.562 116.086 274.594 116.086 274.623 116.078C274.653 116.069 274.68 116.052 274.7 116.029L277.101 112.793C278.404 111.856 278.254 113.231 278.134 113.555L276.567 116.557C276.549 116.599 276.546 116.645 276.558 116.688C276.569 116.732 276.596 116.77 276.632 116.796C276.668 116.823 276.713 116.836 276.758 116.834C276.803 116.832 276.845 116.815 276.879 116.785C277.563 116.113 278.291 115.488 279.058 114.912C279.152 114.849 279.265 114.819 279.378 114.828C279.491 114.837 279.598 114.884 279.682 114.961C279.765 115.038 279.82 115.141 279.837 115.253C279.855 115.365 279.834 115.48 279.778 115.579L277.377 118.935C277.089 119.337 276.843 119.571 277.335 119.535L279.064 118.899C279.58 118.695 279.334 119.877 278.884 120.196C276.369 121.997 275.349 123.402 273.608 124.897C271.867 126.392 260.697 144.817 255.601 151.349C253.747 153.721 250.199 155.3 248.765 151.481C247.69 148.587 250.985 145.88 252.57 143.784C257.116 137.849 261.413 131.719 265.463 125.395Z" fill="url(#paint8_linear)"/>
<path d="M187.62 227.573L70.707 226.835C66.2746 226.811 62.0141 228.549 58.8624 231.666C55.7108 234.784 53.926 239.026 53.9006 243.459L53.7926 260.69C53.7784 262.887 54.197 265.066 55.0245 267.102C55.8521 269.137 57.0724 270.99 58.6157 272.553C60.1591 274.117 61.9952 275.362 64.0194 276.216C66.0436 277.07 68.2161 277.516 70.4129 277.531L181.269 278.221C188.594 278.27 195.616 281.151 200.867 286.26L203.97 289.262L204.144 261.645L204.186 255.04L204.252 244.402C204.276 239.968 202.538 235.707 199.422 232.554C196.305 229.402 192.064 227.617 187.632 227.591L187.62 227.573Z" fill="white"/>
<path d="M167.037 30.4811H205.104C205.581 30.4811 206.04 30.6709 206.377 31.0087C206.715 31.3465 206.905 31.8046 206.905 32.2823C206.905 32.76 206.715 33.2181 206.377 33.5559C206.04 33.8936 205.581 34.0834 205.104 34.0834H167.037C166.56 34.0834 166.102 33.8936 165.764 33.5559C165.427 33.2181 165.237 32.76 165.237 32.2823C165.237 31.8046 165.427 31.3465 165.764 31.0087C166.102 30.6709 166.56 30.4811 167.037 30.4811Z" fill="url(#paint9_linear)"/>
<path d="M166.761 93.1366C163.592 94.5055 163.034 94.2894 159.643 94.8837C156.251 95.4781 153.598 95.0458 150.369 93.8391C148.154 100.599 145.801 107.984 145.201 115.068C145.004 117.201 144.661 119.317 144.175 121.402H123.767C123.707 120.946 123.653 120.478 123.605 119.992C123.067 113.469 123.141 106.91 123.827 100.401C123.882 100.003 123.916 99.6022 123.929 99.2004C123.944 98.8725 123.92 98.544 123.857 98.2218C123.682 97.529 123.394 96.8697 123.005 96.2706C122.195 94.8477 120.238 92.6683 119.151 91.0893C119.007 90.8732 118.875 90.6691 118.767 90.489C119.421 87.4871 122.309 86.0162 123.653 83.2844C124.65 81.1952 126.066 79.3335 127.813 77.815C128.376 77.3405 128.978 76.9147 129.613 76.5422C131.918 75.2034 134.577 74.669 137.23 74.2668C137.644 74.2007 138.053 74.1407 138.467 74.0867C140.167 75.3289 142.192 76.0505 144.295 76.164C144.957 76.1496 145.619 76.2203 146.264 76.3741C146.81 76.5823 147.32 76.8739 147.776 77.2386L148.581 77.839C150.057 78.8897 151.534 79.9523 153.01 81.009C154.034 81.7879 155.125 82.475 156.269 83.0623C159.973 84.8154 161.503 84.6533 165.573 84.137C166.047 86.7006 166.527 90.489 166.761 93.1366Z" fill="#68E1FD"/>
<path d="M137.2 74.0926C136.138 75.0712 139.229 78.4514 140.351 79.3639C141.474 80.2765 143.178 80.2705 144.601 79.8502C145.549 79.5741 146.558 79.0397 146.816 78.0791C146.902 77.3952 146.838 76.7008 146.63 76.0439C146.372 74.633 146.63 73.15 146.246 71.7571C145.816 70.3515 144.942 69.1233 143.755 68.257C142.644 67.3864 139.649 65.0749 139.031 67.3864C138.359 69.8479 139.685 71.7872 137.2 74.0926Z" fill="url(#paint10_linear)"/>
<path d="M136.96 121.402H124.355C124.122 120.919 123.864 120.448 123.581 119.991C123.521 119.898 123.45 119.811 123.371 119.733C122.818 119.15 122.434 118.428 122.26 117.644C120.64 112.051 120.904 106.081 123.011 100.653C123.203 100.108 123.508 99.6086 123.905 99.1882C124.553 98.4978 125.286 98.1616 125.976 96.8888C127.338 94.3852 129.937 90.1165 131.222 87.5769C131.732 92.506 129.817 97.0749 130.021 102.022C130.123 104.904 130.231 107.834 131.222 110.547C132.043 112.787 133.342 114.821 135.027 116.509C135.652 117.224 136.63 119.583 136.96 121.402Z" fill="url(#paint11_linear)"/>
<path d="M165.549 84.0949C165.549 84.0949 166.611 91.8458 166.569 91.4015C166.527 90.9572 181.725 86.8146 186.065 72.4236C186.396 71.9448 186.802 71.5213 187.265 71.1688C192.667 67.1342 193.508 65.4352 191.893 66.4258C191.057 66.9997 190.044 67.2572 189.036 67.1522C189.631 66.6514 190.184 66.1011 190.687 65.5072C191.323 64.7327 192.715 63.9342 193.057 62.9976C193.107 62.8929 193.128 62.7768 193.117 62.6614C193.086 62.5537 193.017 62.4605 192.924 62.398C192.831 62.3355 192.719 62.3076 192.607 62.3192C192.391 62.3506 192.185 62.4329 192.007 62.5594C191.193 63.0682 190.413 63.6298 189.672 64.2404C189.21 64.6187 187.937 65.129 188.376 64.2404C189.06 62.8295 190.578 61.8929 190.981 60.38C191.014 60.2959 191.029 60.2051 191.023 60.1147C191.016 60.0242 190.99 59.9363 190.945 59.8577C190.789 59.6655 190.476 59.7256 190.248 59.8577C189.426 60.2299 186.947 63.634 186.341 63.556C185.735 63.4779 186.995 59.9177 187.043 59.2333C187.043 59.0471 187.043 58.825 186.881 58.7349C186.793 58.7026 186.697 58.6985 186.607 58.7233C186.516 58.748 186.436 58.8004 186.377 58.873C184.792 60.1819 184.576 62.4753 183.556 64.2764C183.42 64.5806 183.173 64.8212 182.866 64.9489C182.211 65.141 181.665 64.3965 180.999 64.2464C180.88 64.2043 180.751 64.2043 180.633 64.2464C180.267 64.4085 180.321 64.9789 180.543 65.3151C183.544 69.89 175.903 80.8949 165.549 84.0949Z" fill="url(#paint12_linear)"/>
<path d="M120.856 91.9359C120.856 91.9359 117.705 117.308 120.118 121.402H125.358C124.284 113.25 124.487 104.979 125.958 96.889C125.958 96.889 125.496 92.8965 120.856 91.9359Z" fill="url(#paint13_linear)"/>
<path opacity="0.32" d="M104.602 90.465H49.5609C47.6979 90.465 46.1876 91.9756 46.1876 93.8391V93.8451C46.1876 95.7086 47.6979 97.2192 49.5609 97.2192H104.602C106.465 97.2192 107.975 95.7086 107.975 93.8451V93.8391C107.975 91.9756 106.465 90.465 104.602 90.465Z" fill="#68E1FD"/>
<path opacity="0.32" d="M104.602 104.292H49.5609C47.6979 104.292 46.1876 105.802 46.1876 107.666V107.672C46.1876 109.535 47.6979 111.046 49.5609 111.046H104.602C106.465 111.046 107.975 109.535 107.975 107.672V107.666C107.975 105.802 106.465 104.292 104.602 104.292Z" fill="#68E1FD"/>
<path opacity="0.32" d="M311.519 165.458H256.478C255.582 165.458 254.724 165.103 254.09 164.47C253.457 163.837 253.1 162.979 253.098 162.084C253.098 161.641 253.186 161.202 253.355 160.793C253.525 160.383 253.773 160.011 254.086 159.698C254.4 159.385 254.771 159.136 255.181 158.967C255.59 158.797 256.029 158.71 256.472 158.71H311.519C311.961 158.71 312.4 158.797 312.809 158.967C313.219 159.136 313.591 159.385 313.904 159.698C314.217 160.011 314.465 160.383 314.635 160.793C314.805 161.202 314.892 161.641 314.892 162.084C314.892 162.979 314.536 163.837 313.904 164.47C313.271 165.102 312.413 165.458 311.519 165.458Z" fill="#68E1FD"/>
<path opacity="0.32" d="M311.519 179.285H256.478C255.582 179.285 254.724 178.929 254.09 178.297C253.457 177.664 253.1 176.806 253.098 175.911C253.1 175.468 253.188 175.031 253.359 174.623C253.53 174.215 253.779 173.844 254.093 173.533C254.407 173.221 254.779 172.974 255.188 172.806C255.597 172.639 256.035 172.553 256.478 172.555H311.519C312.413 172.555 313.271 172.91 313.904 173.543C314.536 174.176 314.892 175.034 314.892 175.929C314.885 176.82 314.527 177.673 313.896 178.301C313.264 178.93 312.41 179.283 311.519 179.285Z" fill="#68E1FD"/>
<path opacity="0.32" d="M156.522 244.654H101.487C100.592 244.654 99.7329 244.299 99.0993 243.666C98.4657 243.033 98.109 242.175 98.1074 241.28C98.1074 240.383 98.4635 239.523 99.0972 238.89C99.7309 238.256 100.59 237.9 101.487 237.9H156.522C157.416 237.9 158.274 238.255 158.907 238.888C159.54 239.521 159.895 240.379 159.895 241.274C159.896 241.717 159.809 242.156 159.64 242.565C159.472 242.975 159.224 243.347 158.911 243.661C158.598 243.975 158.227 244.224 157.818 244.395C157.409 244.565 156.971 244.653 156.528 244.654H156.522Z" fill="#68E1FD"/>
<path opacity="0.32" d="M156.527 253.329H101.487C99.6235 253.329 98.1133 254.84 98.1133 256.703V256.709C98.1133 258.573 99.6235 260.084 101.487 260.084H156.527C158.391 260.084 159.901 258.573 159.901 256.709V256.703C159.901 254.84 158.391 253.329 156.527 253.329Z" fill="#68E1FD"/>
<path d="M252.906 153.853C252.505 154.987 251.826 156.002 250.931 156.807C249.257 158.338 247.132 159.298 245.481 160.853C241.82 164.299 241.214 169.805 240.83 174.818L239.491 192.121H214.282C212.474 192.122 210.673 192.324 208.909 192.721C209.234 188.078 209.514 183.435 209.75 178.792C210.194 170.069 210.212 160.475 204.654 153.733C204.077 153.185 203.68 152.475 203.513 151.697C203.441 150.803 204.048 150.01 204.618 149.296C204.654 149.26 204.678 149.224 204.714 149.182L208.423 144.649C208.611 144.346 208.858 144.084 209.148 143.877C209.439 143.671 209.768 143.525 210.116 143.448C210.727 143.487 211.3 143.757 211.719 144.205C213.147 145.506 214.45 146.939 215.608 148.485C216.37 149.446 217.115 150.419 217.907 151.355C221.646 155.774 227.355 158.884 232.745 155.342C236.447 152.833 240.304 150.561 244.293 148.539C246.152 147.638 248.057 146.836 250.001 146.138C249.887 147.069 250.385 147.825 251.004 148.539C251.668 149.216 252.252 149.968 252.744 150.779C252.972 151.255 253.103 151.772 253.131 152.3C253.159 152.827 253.083 153.355 252.906 153.853Z" fill="#68E1FD"/>
<path d="M208.946 148.984C210.105 146.92 210.488 144.509 210.026 142.188C209.564 139.89 208.826 137.656 207.829 135.535L201.503 120.526C200.934 119.302 200.493 118.022 200.188 116.708C199.75 114.462 200.104 112.145 200.458 109.887C200.058 109.772 199.628 109.815 199.258 110.007C199.315 110.615 199.188 111.225 198.895 111.76C198.602 112.295 198.156 112.73 197.613 113.009C197.056 110.753 196.034 108.639 194.612 106.801C194.768 108.478 194.884 110.159 194.96 111.844C193.64 110.488 192.315 109.135 190.987 107.786C189.96 109.587 193.652 111.502 192.787 113.399L188.43 110.259C188.112 112.397 191.569 113.405 191.755 115.567L188.628 114.108C189.288 115.723 190.819 116.774 192.031 118.034C196.485 122.723 196.485 129.982 199.27 135.812C200.866 139.168 202.577 141.911 203.297 145.58C203.838 148.335 206.208 153.385 208.946 148.984Z" fill="url(#paint14_linear)"/>
<path d="M114.475 182.617C117.084 182.617 119.199 180.501 119.199 177.892C119.199 175.282 117.084 173.167 114.475 173.167C111.867 173.167 109.752 175.282 109.752 177.892C109.752 180.501 111.867 182.617 114.475 182.617Z" fill="#68E1FD"/>
<path d="M128.995 182.617C131.604 182.617 133.719 180.501 133.719 177.892C133.719 175.282 131.604 173.167 128.995 173.167C126.386 173.167 124.271 175.282 124.271 177.892C124.271 180.501 126.386 182.617 128.995 182.617Z" fill="#68E1FD"/>
<path d="M143.515 182.617C146.123 182.617 148.238 180.501 148.238 177.892C148.238 175.282 146.123 173.167 143.515 173.167C140.906 173.167 138.791 175.282 138.791 177.892C138.791 180.501 140.906 182.617 143.515 182.617Z" fill="#68E1FD"/>
<path d="M230.632 262.779C233.241 262.779 235.356 260.664 235.356 258.054C235.356 255.445 233.241 253.329 230.632 253.329C228.023 253.329 225.908 255.445 225.908 258.054C225.908 260.664 228.023 262.779 230.632 262.779Z" fill="#68E1FD"/>
<path d="M245.145 262.779C247.754 262.779 249.869 260.664 249.869 258.054C249.869 255.445 247.754 253.329 245.145 253.329C242.536 253.329 240.422 255.445 240.422 258.054C240.422 260.664 242.536 262.779 245.145 262.779Z" fill="#68E1FD"/>
<path d="M259.659 262.779C262.268 262.779 264.383 260.664 264.383 258.054C264.383 255.445 262.268 253.329 259.659 253.329C257.05 253.329 254.935 255.445 254.935 258.054C254.935 260.664 257.05 262.779 259.659 262.779Z" fill="#68E1FD"/>
<path d="M211.388 101.938C213.997 101.938 216.112 99.8226 216.112 97.2131C216.112 94.6036 213.997 92.4881 211.388 92.4881C208.779 92.4881 206.665 94.6036 206.665 97.2131C206.665 99.8226 208.779 101.938 211.388 101.938Z" fill="#68E1FD"/>
<path d="M225.908 101.938C228.517 101.938 230.632 99.8226 230.632 97.2131C230.632 94.6036 228.517 92.4881 225.908 92.4881C223.299 92.4881 221.184 94.6036 221.184 97.2131C221.184 99.8226 223.299 101.938 225.908 101.938Z" fill="#68E1FD"/>
<path d="M240.421 101.938C243.03 101.938 245.145 99.8226 245.145 97.2131C245.145 94.6036 243.03 92.4881 240.421 92.4881C237.813 92.4881 235.698 94.6036 235.698 97.2131C235.698 99.8226 237.813 101.938 240.421 101.938Z" fill="#68E1FD"/>
<path d="M155.363 67.1162C154.715 69.3737 153.646 71.5951 151.84 73.12C150.601 74.1541 149.083 74.7965 147.479 74.9653C145.874 75.1341 144.256 74.8219 142.829 74.0682C141.403 73.3145 140.232 72.1535 139.467 70.7327C138.702 69.312 138.377 67.6958 138.533 66.0896C138.533 65.9035 138.533 65.6753 138.401 65.5673C138.26 65.5192 138.108 65.5192 137.968 65.5673C137.086 65.6573 136.432 64.7448 136.168 63.9042C135.928 63.2684 135.867 62.5788 135.994 61.911C136.061 61.5803 136.215 61.2735 136.44 61.0215C136.664 60.7695 136.952 60.5814 137.272 60.4761C137.598 60.3853 137.946 60.424 138.243 60.584C138.541 60.744 138.765 61.013 138.869 61.3346C138.993 60.0852 139.404 58.8812 140.069 57.8164C140.743 56.4289 141.653 55.1693 142.758 54.0941C143.943 53.095 145.379 52.4393 146.91 52.198C148.441 51.9567 150.009 52.139 151.443 52.7252C152.718 53.252 153.865 54.0451 154.808 55.0516C155.751 56.0581 156.469 57.2546 156.912 58.5609C157.26 59.7616 156.75 60.8003 156.515 61.971C156.125 63.6401 155.855 65.4412 155.363 67.1162Z" fill="url(#paint15_linear)"/>
<path d="M139.289 62.4694C139.253 62.5177 139.207 62.5578 139.154 62.5868C139.101 62.6158 139.043 62.6331 138.983 62.6375C138.749 62.6375 138.689 62.3133 138.671 62.0852C138.676 61.5218 138.461 60.9787 138.07 60.5722C137.974 60.4754 137.859 60.3987 137.733 60.3463C137.607 60.2939 137.472 60.267 137.335 60.267C137.199 60.267 137.063 60.2939 136.937 60.3463C136.811 60.3987 136.696 60.4754 136.6 60.5722C136.205 57.9326 136.767 55.2386 138.185 52.9774C138.359 52.7609 138.473 52.5019 138.515 52.227C138.515 51.8727 138.311 51.5245 138.377 51.1763C138.453 50.9239 138.606 50.7015 138.815 50.5399C139.445 49.8877 140.209 49.3797 141.054 49.051C141.47 48.8883 141.92 48.8295 142.365 48.8797C142.809 48.9299 143.235 49.0876 143.605 49.3391C145.517 48.2107 147.693 47.6042 149.913 47.58C151.203 47.5518 152.486 47.7699 153.694 48.2224C155.872 49.1271 157.634 50.812 158.634 52.9474C159.612 55.0808 159.968 57.447 159.661 59.7737C157.712 60.6552 155.495 60.7365 153.487 59.9999C151.479 59.2634 149.84 57.7679 148.923 55.8352C148.748 56.7766 148.85 57.7484 149.217 58.633C148.485 58.271 147.848 57.7434 147.356 57.092C146.865 56.4406 146.532 55.6834 146.384 54.8806C145.934 54.4604 145.249 54.9947 144.877 55.481C143.917 56.7478 143.028 58.2367 141.876 59.3234C141.357 59.7103 140.88 60.151 140.453 60.6382C139.991 61.2026 139.799 61.9291 139.289 62.4694Z" fill="#3F3D56"/>
<path d="M231.928 155.588C231.718 157.263 230.158 158.704 228.459 159.112C228.029 159.226 227.582 159.262 227.138 159.22C224.738 158.974 223.645 156.008 223.693 153.589C223.741 151.169 224.293 148.702 223.189 146.642C223.189 146.576 223.123 146.51 223.087 146.444C222.487 145.381 221.436 144.589 220.902 143.478C220.41 142.223 220.302 140.851 220.59 139.534C221.304 134.515 225.236 121.252 232.811 126.217C234.773 127.502 235.944 129.724 236.616 131.969C238.993 139.888 233.915 139.75 231.928 155.588Z" fill="url(#paint16_linear)"/>
<path d="M229.81 127.838C230.824 128.439 231.328 129.64 231.556 130.84C232.21 134.172 231.148 137.571 230.554 140.915C229.96 144.259 229.954 148.119 232.3 150.581L232.354 150.641C233.247 151.549 234.463 152.065 235.736 152.077C237.009 152.088 238.235 151.593 239.143 150.701C239.599 150.258 239.96 149.727 240.205 149.14C240.319 148.882 240.452 148.63 240.59 148.383C241.502 146.768 242.774 145.381 243.681 143.76C244.418 142.397 244.929 140.923 245.193 139.396C245.527 137.839 245.538 136.231 245.223 134.671C244.623 132.053 242.822 129.868 240.938 128.001C239.053 126.133 237.138 124.56 234.755 123.732C232.372 122.903 229.527 123.035 227.553 124.59C226.952 125.071 225.302 126.992 226.16 127.832C226.886 128.481 228.747 127.19 229.81 127.838Z" fill="#3F3D56"/>
<path d="M121.474 91.9359L118.731 90.465L120.718 93.1727L120.85 91.9359H121.474Z" fill="url(#paint17_linear)"/>
<path d="M150.369 93.8391C150.455 93.15 150.798 92.5189 151.331 92.0732C151.863 91.6276 152.545 91.4004 153.238 91.4376C155.927 91.3596 166.359 89.9847 166.359 89.9847L166.761 93.1547C166.761 93.1547 157.536 97.0571 150.369 93.8391Z" fill="url(#paint18_linear)"/>
<path opacity="0.18" d="M165.549 84.0949V85.4998C165.549 85.4998 156.431 87.9553 146.81 78.0491L146.21 76.35C146.755 76.5582 147.266 76.8499 147.722 77.2146L148.526 77.815L152.956 80.9849C153.98 81.7639 155.071 82.451 156.215 83.0382C159.919 84.7913 161.449 84.6292 165.519 84.1129L165.549 84.0949Z" fill="white"/>
<path opacity="0.18" d="M137.699 76.356C137.699 76.356 128.221 75.8937 123.719 86.7005C122.753 89.006 120.376 91.3595 120.376 91.3595L119.127 91.0953C118.983 90.8792 118.851 90.675 118.743 90.4949C119.398 87.493 122.285 86.0221 123.629 83.2904C124.626 81.2012 126.042 79.3394 127.789 77.8209C128.352 77.3464 128.954 76.9206 129.589 76.5481C131.894 75.2093 134.553 74.675 137.206 74.2727L137.699 76.356Z" fill="white"/>
<path d="M252.906 153.853C252.505 154.987 251.826 156.002 250.932 156.807C249.257 158.338 247.132 159.298 245.481 160.853C241.82 164.299 241.214 169.805 240.83 174.818L239.491 192.121H220.446C220.446 192.121 230.824 171.036 233.651 165.452C236.478 159.869 245.121 156.194 245.121 156.194C251.856 150.971 252.906 153.853 252.906 153.853Z" fill="url(#paint19_linear)"/>
<path d="M228.759 158.818C228.674 158.931 228.573 159.03 228.459 159.112C228.028 159.226 227.581 159.262 227.138 159.22C224.737 158.974 223.645 156.008 223.693 153.589C223.741 151.169 224.635 148.834 222.631 145.784C223.681 146.546 225.074 147.02 228.123 147.219C230.326 147.339 229.005 158.5 228.759 158.818Z" fill="url(#paint20_linear)"/>
</g>
<defs>
<linearGradient id="paint0_linear" x1="189.99" y1="389.975" x2="179.169" y2="238.518" gradientUnits="userSpaceOnUse">
<stop stop-opacity="0"/>
<stop offset="0.49" stop-opacity="0.2"/>
<stop offset="0.52" stop-opacity="0.23"/>
<stop offset="0.99"/>
</linearGradient>
<linearGradient id="paint1_linear" x1="171.383" y1="581.003" x2="183.952" y2="142.608" gradientUnits="userSpaceOnUse">
<stop offset="0.01"/>
<stop offset="1" stop-opacity="0"/>
</linearGradient>
<linearGradient id="paint2_linear" x1="46143.8" y1="33478.3" x2="46490.3" y2="44258.5" gradientUnits="userSpaceOnUse">
<stop offset="0.01"/>
<stop offset="1" stop-opacity="0"/>
</linearGradient>
<linearGradient id="paint3_linear" x1="185.206" y1="486.282" x2="182.624" y2="-47.5499" gradientUnits="userSpaceOnUse">
<stop offset="0.02" stop-color="white" stop-opacity="0"/>
<stop offset="0.58" stop-color="white" stop-opacity="0.39"/>
<stop offset="0.68" stop-color="white" stop-opacity="0.68"/>
<stop offset="1" stop-color="white"/>
</linearGradient>
<linearGradient id="paint4_linear" x1="135.862" y1="46.0609" x2="137.387" y2="305.706" gradientUnits="userSpaceOnUse">
<stop stop-opacity="0"/>
<stop offset="0.99"/>
</linearGradient>
<linearGradient id="paint5_linear" x1="41201.7" y1="20748.8" x2="40450.2" y2="-7193.75" gradientUnits="userSpaceOnUse">
<stop stop-opacity="0"/>
<stop offset="0.99"/>
</linearGradient>
<linearGradient id="paint6_linear" x1="70690.9" y1="20707.4" x2="70431.2" y2="30123.3" gradientUnits="userSpaceOnUse">
<stop offset="0.01"/>
<stop offset="1" stop-opacity="0"/>
</linearGradient>
<linearGradient id="paint7_linear" x1="35027.7" y1="14060.6" x2="35216.5" y2="22614.7" gradientUnits="userSpaceOnUse">
<stop offset="0.01"/>
<stop offset="1" stop-opacity="0"/>
</linearGradient>
<linearGradient id="paint8_linear" x1="248.555" y1="132.605" x2="279.844" y2="132.605" gradientUnits="userSpaceOnUse">
<stop stop-color="#ECC4D7"/>
<stop offset="0.42" stop-color="#EFD4D1"/>
<stop offset="1" stop-color="#F2EAC9"/>
</linearGradient>
<linearGradient id="paint9_linear" x1="13081.8" y1="2056.43" x2="13081.8" y2="1715.62" gradientUnits="userSpaceOnUse">
<stop stop-opacity="0"/>
<stop offset="0.99"/>
</linearGradient>
<linearGradient id="paint10_linear" x1="3409.92" y1="4114.6" x2="3561.83" y2="4184.85" gradientUnits="userSpaceOnUse">
<stop stop-color="#ECC4D7"/>
<stop offset="0.42" stop-color="#EFD4D1"/>
<stop offset="1" stop-color="#F2EAC9"/>
</linearGradient>
<linearGradient id="paint11_linear" x1="3663.56" y1="14371" x2="2396.44" y2="14251.8" gradientUnits="userSpaceOnUse">
<stop stop-opacity="0"/>
<stop offset="0.99"/>
</linearGradient>
<linearGradient id="paint12_linear" x1="10545" y1="9891.79" x2="11811.3" y2="9891.79" gradientUnits="userSpaceOnUse">
<stop stop-color="#ECC4D7"/>
<stop offset="0.42" stop-color="#EFD4D1"/>
<stop offset="1" stop-color="#F2EAC9"/>
</linearGradient>
<linearGradient id="paint13_linear" x1="2139.09" y1="10501.3" x2="2215.16" y2="10501.3" gradientUnits="userSpaceOnUse">
<stop stop-color="#ECC4D7"/>
<stop offset="0.42" stop-color="#EFD4D1"/>
<stop offset="1" stop-color="#F2EAC9"/>
</linearGradient>
<linearGradient id="paint14_linear" x1="9228.75" y1="17235.6" x2="10021" y2="17235.6" gradientUnits="userSpaceOnUse">
<stop stop-color="#ECC4D7"/>
<stop offset="0.42" stop-color="#EFD4D1"/>
<stop offset="1" stop-color="#F2EAC9"/>
</linearGradient>
<linearGradient id="paint15_linear" x1="145.657" y1="56.1053" x2="148.528" y2="73.2219" gradientUnits="userSpaceOnUse">
<stop offset="0.2" stop-color="#ECC4D7"/>
<stop offset="0.37" stop-color="#F0DCCE"/>
<stop offset="1" stop-color="#F2EAC9"/>
</linearGradient>
<linearGradient id="paint16_linear" x1="8083.21" y1="14193.9" x2="8553.56" y2="14193.9" gradientUnits="userSpaceOnUse">
<stop stop-color="#ECC4D7"/>
<stop offset="0.42" stop-color="#EFD4D1"/>
<stop offset="1" stop-color="#F2EAC9"/>
</linearGradient>
<linearGradient id="paint17_linear" x1="121.222" y1="91.2575" x2="119.313" y2="91.9776" gradientUnits="userSpaceOnUse">
<stop stop-color="#68E1FD"/>
<stop offset="0.2" stop-color="#5DB4CF"/>
<stop offset="0.46" stop-color="#50819B"/>
<stop offset="0.69" stop-color="#475C76"/>
<stop offset="0.87" stop-color="#41455E"/>
<stop offset="0.99" stop-color="#3F3D56"/>
</linearGradient>
<linearGradient id="paint18_linear" x1="6097.72" y1="1647.49" x2="6078.05" y2="1905.06" gradientUnits="userSpaceOnUse">
<stop stop-opacity="0"/>
<stop offset="0.99"/>
</linearGradient>
<linearGradient id="paint19_linear" x1="15918.9" y1="17950.1" x2="20966.1" y2="20242.7" gradientUnits="userSpaceOnUse">
<stop stop-opacity="0"/>
<stop offset="0.99"/>
</linearGradient>
<linearGradient id="paint20_linear" x1="3512.72" y1="5879.51" x2="2802.84" y2="5983.55" gradientUnits="userSpaceOnUse">
<stop stop-color="#ECC4D7"/>
<stop offset="0.42" stop-color="#EFD4D1"/>
<stop offset="1" stop-color="#F2EAC9"/>
</linearGradient>
<clipPath id="clip0">
<rect width="366.127" height="356.27" fill="white"/>
</clipPath>
</defs>
</svg>
