<svg width="403" height="357" viewBox="0 0 403 357" fill="none" xmlns="http://www.w3.org/2000/svg">
<path d="M201.568 310.765C278.851 310.765 341.501 248.853 341.501 172.481C341.501 96.1092 278.851 34.1974 201.568 34.1974C124.285 34.1974 61.635 96.1092 61.635 172.481C61.635 248.853 124.285 310.765 201.568 310.765Z" fill="#68E1FD"/>
<path d="M201.568 45.4724C130.583 45.4724 73.0385 102.339 73.0385 172.481C73.0385 242.623 130.583 299.496 201.568 299.496C272.552 299.496 330.097 242.629 330.097 172.481C330.097 102.333 272.558 45.4724 201.568 45.4724ZM187.613 288.365C122.854 280.75 76.6018 222.693 84.3075 158.697C92.0133 94.7009 150.758 48.9879 215.523 56.6029C280.287 64.2179 326.534 122.276 318.828 186.266C311.122 250.256 252.378 295.98 187.613 288.365Z" fill="url(#paint0_linear)"/>
<path d="M318.828 186.266C311.123 250.273 252.378 295.98 187.613 288.365C122.849 280.75 76.6021 222.693 84.3078 158.697C92.0136 94.701 150.758 48.988 215.523 56.6029C280.288 64.2179 326.534 122.276 318.828 186.266Z" fill="#68E1FD"/>
<path d="M318.828 186.266C311.123 250.273 252.378 295.98 187.613 288.365C122.849 280.75 76.6021 222.693 84.3078 158.697C92.0136 94.701 150.758 48.988 215.523 56.6029C280.288 64.2179 326.534 122.276 318.828 186.266Z" fill="url(#paint1_linear)"/>
<path d="M266.333 74.8686C260.856 73.422 255.281 72.365 249.652 71.7058C184.887 64.0908 126.143 109.798 118.437 173.8C115.837 195.357 119.373 217.203 128.647 236.883C137.922 256.563 152.568 273.297 170.938 285.203C115.119 270.464 77.2808 217.049 84.3079 158.697C92.0137 94.6952 150.758 48.9881 215.523 56.603C233.665 58.7108 251.061 64.9645 266.333 74.8686Z" fill="url(#paint2_linear)"/>
<path d="M194.488 167.838V85.6057C194.488 85.6057 195.659 81.2113 199.286 83.8133L200.421 166.676L208.964 166.514C208.964 166.514 213.124 146.167 214.604 143.889C216.084 141.611 223.088 139.13 223.088 139.13C223.088 139.13 223.03 136.072 222.275 135.175C221.52 134.279 219.712 132.411 220.046 131.596C220.379 130.781 220.754 130.012 220.754 130.012C220.754 130.012 219.712 125.49 220.128 124.27C220.128 124.27 222.041 119.575 222.275 119.252C222.385 119.06 222.537 118.896 222.719 118.769C222.901 118.642 223.109 118.556 223.329 118.518C223.548 118.479 223.773 118.488 223.989 118.545C224.204 118.602 224.404 118.705 224.574 118.847C225.92 119.685 228.571 124.721 228.571 124.721C228.571 124.721 231.789 127.612 232.04 130.584C232.292 133.556 229.261 138.477 229.261 138.477L233.942 140.414C233.942 140.414 245.059 145.502 245.907 146.809C246.756 148.116 245.48 150.278 245.48 150.278L234.55 150.457L230.654 156.147L231.168 164.993L238.342 168.786C238.342 168.786 239.413 170.903 239.126 171.394C238.839 171.886 264.63 172.134 264.63 172.134V175.332C264.63 175.332 264.426 176.904 262.337 176.968C260.248 177.032 241.068 176.968 241.068 176.968L239.594 185.641L239.658 191.013L244.924 196.5C244.924 196.5 245.24 198.813 243.812 198.645C242.385 198.477 235.416 195.106 235.334 192.447V183.195L234.193 176.031L229.302 172.499L225.54 174.592L223.784 185.878L224.253 194.233V196.546L221.655 202.114C221.655 202.114 220.128 202.386 220.128 199.564C220.128 196.743 222.304 193.487 222.304 193.487C221.8 192.107 221.064 190.821 220.128 189.683C218.811 188.278 215.845 173.84 215.845 173.84L195.717 175.28L194.488 167.838Z" fill="url(#paint3_linear)"/>
<path d="M229.29 196.87C229.103 197.789 228.691 198.648 228.09 199.374C227.486 200.121 226.819 200.815 226.095 201.449C225.652 201.903 225.118 202.259 224.527 202.496C224.228 202.607 223.903 202.631 223.592 202.563C223.28 202.495 222.995 202.339 222.771 202.114C222.574 201.832 222.468 201.497 222.468 201.154C222.468 200.811 222.574 200.477 222.771 200.195C223.184 199.642 223.679 199.154 224.24 198.749C225.504 197.691 226.358 196.35 227.493 195.193C228.839 193.834 229.489 195.685 229.29 196.87Z" fill="#68E1FD"/>
<path d="M238.5 192.452C239.101 193.363 239.919 194.115 240.881 194.644C241.854 195.195 242.874 195.662 243.929 196.037C244.602 196.346 245.335 196.506 246.077 196.506C246.452 196.504 246.818 196.394 247.13 196.188C247.442 195.982 247.686 195.691 247.832 195.349C247.918 194.96 247.882 194.554 247.73 194.186C247.577 193.817 247.315 193.503 246.978 193.285C246.296 192.863 245.552 192.549 244.772 192.354C242.952 191.741 241.448 190.654 239.722 189.885C237.68 188.983 237.78 191.255 238.5 192.452Z" fill="#68E1FD"/>
<path d="M235.697 150.463C235.697 150.463 246.17 154.609 247.896 154.51C249.622 154.412 251.167 152.961 250.611 150.989C250.055 149.018 235.358 141.628 235.358 141.628L235.697 150.463Z" fill="#68E1FD"/>
<path d="M234.861 150.463C234.861 150.463 245.334 154.609 247.054 154.511C248.774 154.412 250.325 152.961 249.769 150.989C249.213 149.018 234.527 141.605 234.527 141.605L234.861 150.463Z" fill="url(#paint4_linear)"/>
<path d="M220.484 163.924C220.404 160.877 220.482 157.827 220.718 154.788C221.029 150.532 219.683 145.375 222.474 142.12C223.293 141.166 227.43 140.431 228.699 140.385C231.707 140.35 235.135 140.807 237.476 143.022C239.295 144.756 237.932 148.989 237.727 151.481C237.341 156.297 237.914 157.962 237.967 161.524C238.002 164.207 237.914 167.416 235.726 169.041C234.521 169.914 231.496 169.845 230.004 169.943C227.956 170.087 224.229 170.59 222.351 169.619C220.578 168.7 220.549 165.629 220.484 163.924Z" fill="#68E1FD"/>
<path d="M220.484 163.924C220.404 160.877 220.482 157.827 220.718 154.788C221.029 150.532 219.683 145.375 222.474 142.12C223.293 141.166 227.43 140.431 228.699 140.385C231.707 140.35 235.135 140.807 237.476 143.022C239.295 144.756 237.932 148.989 237.727 151.481C237.341 156.297 237.914 157.962 237.967 161.524C238.002 164.207 237.914 167.416 235.726 169.041C234.521 169.914 231.496 169.845 230.004 169.943C227.956 170.087 224.229 170.59 222.351 169.619C220.578 168.7 220.549 165.629 220.484 163.924Z" fill="url(#paint5_linear)"/>
<path opacity="0.31" d="M221.374 148.162L222.011 155.366C222.158 157.168 222.894 158.874 224.11 160.225C225.325 161.576 226.952 162.499 228.746 162.854C228.939 162.893 229.135 162.92 229.331 162.935C231.461 163.097 235.083 164.86 235.083 164.86L226.692 167.439L222.316 166.138L220.484 166.606L220.683 155.806L221.374 148.162Z" fill="url(#paint6_linear)"/>
<path d="M226.722 142.276C226.751 142.778 226.88 143.269 227.102 143.721C227.324 144.174 227.634 144.579 228.015 144.912C228.65 145.349 229.413 145.567 230.185 145.531C230.618 145.558 231.05 145.487 231.45 145.323C231.85 145.158 232.206 144.905 232.491 144.583C233.076 143.75 232.895 142.6 232.625 141.605C232.497 140.882 232.141 140.218 231.607 139.709C230.759 139.049 228.957 138.992 227.956 139.333C226.809 139.726 226.599 141.258 226.722 142.276Z" fill="#68E1FD"/>
<path d="M226.722 142.276C226.751 142.778 226.88 143.269 227.102 143.721C227.324 144.174 227.634 144.579 228.015 144.912C228.65 145.349 229.413 145.567 230.185 145.531C230.618 145.558 231.05 145.487 231.45 145.323C231.85 145.158 232.206 144.905 232.491 144.583C233.076 143.75 232.895 142.6 232.625 141.605C232.497 140.882 232.141 140.218 231.607 139.709C230.759 139.049 228.957 138.992 227.956 139.333C226.809 139.726 226.599 141.258 226.722 142.276Z" fill="url(#paint7_linear)"/>
<path d="M224.44 132.614C224.44 132.036 225.113 127.988 222.837 128.867C222.047 129.156 222.357 130.023 222.503 130.769C222.731 131.943 224.451 132.897 224.44 132.614Z" fill="url(#paint8_linear)"/>
<path d="M234.831 132.793C234.889 132.215 234.03 128.168 236.228 129.202C236.988 129.567 236.602 130.359 236.386 131.134C236.058 132.279 234.796 133.071 234.831 132.793Z" fill="url(#paint9_linear)"/>
<path d="M201.568 179.969C205.753 179.969 209.145 176.616 209.145 172.481C209.145 168.346 205.753 164.993 201.568 164.993C197.383 164.993 193.991 168.346 193.991 172.481C193.991 176.616 197.383 179.969 201.568 179.969Z" fill="#68E1FD"/>
<path d="M201.568 179.969C205.753 179.969 209.145 176.616 209.145 172.481C209.145 168.346 205.753 164.993 201.568 164.993C197.383 164.993 193.991 168.346 193.991 172.481C193.991 176.616 197.383 179.969 201.568 179.969Z" fill="url(#paint10_linear)"/>
<path d="M201.323 81.1537C202.053 81.1537 202.754 81.4406 203.271 81.9513C203.788 82.462 204.078 83.1547 204.078 83.877V174.574H198.549V83.877C198.549 83.1547 198.839 82.462 199.356 81.9513C199.873 81.4406 200.574 81.1537 201.305 81.1537H201.323Z" fill="#25233A"/>
<path d="M263.303 169.712H201.03C199.67 169.712 198.567 170.8 198.567 172.143C198.567 173.486 199.67 174.574 201.03 174.574H263.303C264.663 174.574 265.766 173.486 265.766 172.143C265.766 170.8 264.663 169.712 263.303 169.712Z" fill="#25233A"/>
<path d="M227.874 141.975C227.844 142.527 227.942 143.079 228.16 143.588C228.317 143.854 228.515 144.094 228.746 144.299C229.015 144.623 229.382 144.854 229.793 144.959C230.02 144.986 230.251 144.959 230.465 144.881C230.68 144.802 230.873 144.674 231.027 144.508C231.325 144.168 231.527 143.758 231.612 143.317C231.805 142.349 231.836 141.357 231.706 140.379L231.577 138.743C231.582 138.023 231.392 137.314 231.027 136.69C230.865 136.467 230.659 136.28 230.42 136.14C230.181 135.999 229.916 135.909 229.641 135.875C226.756 135.517 227.833 140.379 227.874 141.975Z" fill="url(#paint11_linear)"/>
<path d="M235.451 125.699C235.451 125.699 236.253 137.02 230.431 138.477C224.61 139.934 223.79 130.382 223.627 127.052C223.463 123.721 226.084 120.928 230.431 121.46C232.438 121.709 235.024 123.004 235.451 125.699Z" fill="url(#paint12_linear)"/>
<path d="M225.75 118.847C226.874 117.199 229.443 117.02 231.151 118.066C231.935 118.552 232.596 119.223 233.462 119.564C234.082 119.801 234.773 119.836 235.411 120.032C236.048 120.236 236.619 120.605 237.062 121.102C237.505 121.598 237.805 122.203 237.93 122.854C238.056 123.505 238.001 124.176 237.773 124.799C237.545 125.422 237.151 125.972 236.633 126.392C235.996 126.901 235.206 127.196 234.521 127.641C234.521 126.959 233.772 126.3 233.199 125.907C232.608 125.539 231.925 125.339 231.227 125.329L231.408 125.716C230.408 126.027 229.334 126.013 228.343 125.675C227.237 125.3 226.066 124.519 225.007 125.016C224.493 125.259 223.972 125.785 223.463 125.531C223.322 125.432 223.207 125.302 223.127 125.152C223.047 125.001 223.003 124.834 223.001 124.664C222.667 122.461 224.434 120.732 225.75 118.847Z" fill="#25233A"/>
<path d="M222.479 142.12C221.291 142.542 220.226 143.245 219.375 144.167C218.525 145.089 217.915 146.202 217.6 147.41C216.558 151.539 212.808 167.85 212.808 167.85C212.808 167.85 216.412 168.255 217.641 168.012L221.216 153.557C221.216 153.557 221.069 144.976 222.479 142.12Z" fill="#68E1FD"/>
<path d="M222.479 142.12C221.291 142.542 220.226 143.245 219.375 144.167C218.525 145.089 217.915 146.202 217.6 147.41C216.558 151.539 212.808 167.85 212.808 167.85C212.808 167.85 216.412 168.255 217.641 168.012L221.216 153.557C221.216 153.557 221.069 144.976 222.479 142.12Z" fill="url(#paint13_linear)"/>
<path d="M222.31 199.512C222.302 199.811 222.374 200.107 222.52 200.368C222.673 200.573 222.873 200.739 223.104 200.851C223.336 200.962 223.591 201.017 223.849 201.01C224.772 200.997 225.654 200.633 226.312 199.992C226.958 199.355 227.485 198.609 227.868 197.789C228.119 197.35 228.302 196.877 228.412 196.384C228.64 195.228 228.167 194.014 227.704 192.915C227.874 193.331 225.458 193.638 225.235 193.638C224.287 193.638 224.416 194.216 224.1 194.991C223.503 196.471 222.298 197.83 222.31 199.512Z" fill="#25233A"/>
<path d="M224.235 190.891L225.405 194.198C225.405 194.198 226.143 195.557 227.266 194.551C227.266 194.551 227.64 194.175 227.716 192.886L226.722 189.949L224.235 190.891Z" fill="url(#paint14_linear)"/>
<path d="M246.282 170.278C245.509 176.534 242.607 185.514 242.478 185.514C241.841 185.335 238.968 186.052 238.318 185.809C237.979 185.676 237.78 179.015 237.967 175.546C238.032 174.389 238.032 170.856 238.032 169.711L230.01 169.943L228.413 170.041C228.424 171.535 228.301 173.027 228.044 174.499C227.19 180.686 226.318 183.75 226.622 189.966C226.581 190.978 224.405 191.394 223.662 190.614C220.332 187.098 220.11 183.38 219.425 178.61C218.969 175.43 217.471 163.802 221.625 162.935C222.237 162.798 222.866 162.748 223.492 162.785C224.475 162.854 226.376 162.906 227.002 163.733C227.213 163.837 231.414 165.918 234.96 164.855L238.705 161.038C239.219 160.398 239.936 159.945 240.741 159.754C241.545 159.562 242.392 159.642 243.145 159.98C244.608 160.663 245.72 162.293 246.188 164.161C246.656 166.028 246.533 168.237 246.282 170.278Z" fill="#68E1FD"/>
<path d="M238.037 190.226C238.001 190.484 238.021 190.746 238.096 190.995C238.209 191.235 238.38 191.443 238.593 191.603C240.357 193.134 242.459 194.235 244.731 194.817C245.215 194.978 245.739 194.978 246.223 194.817C246.59 194.612 246.867 194.28 247.002 193.886C247.137 193.491 247.12 193.061 246.954 192.678C246.595 191.922 246.025 191.284 245.31 190.839C244.595 190.398 243.968 189.829 243.461 189.163C243.285 188.762 243.01 188.412 242.66 188.145C242.379 188.029 242.074 187.981 241.77 188.006C241.086 188.006 239.085 187.7 238.529 188.058C237.973 188.417 238.072 189.509 238.037 190.226Z" fill="#25233A"/>
<path d="M238.406 185.809L238.734 188.573C239.255 189.038 239.863 189.399 240.524 189.637C240.689 189.686 240.863 189.697 241.032 189.668C241.202 189.64 241.362 189.572 241.5 189.471C241.639 189.369 241.751 189.237 241.828 189.086C241.906 188.934 241.946 188.766 241.946 188.596V188.37L242.11 185.479L238.406 185.809Z" fill="url(#paint15_linear)"/>
<path d="M249.938 150.995L234.205 147.74L233.491 151.949C233.491 151.949 246.475 157.511 248.616 155.881C250.757 154.25 250.874 152.042 249.938 150.995Z" fill="#68E1FD"/>
<path d="M249.938 150.995L234.205 147.74L233.491 151.949C233.491 151.949 246.475 157.511 248.616 155.881C250.757 154.25 250.874 152.042 249.938 150.995Z" fill="url(#paint16_linear)"/>
<path d="M234.111 148.249C234.111 148.249 228.904 145.936 226.909 146.075C224.914 146.214 224.949 147.619 224.949 147.619V149.157C224.941 149.459 225.024 149.758 225.187 150.014C225.351 150.27 225.587 150.473 225.867 150.596C226.415 150.848 227.021 150.952 227.623 150.897C228.892 150.706 229.15 150.064 229.15 150.064C229.15 150.064 230.279 151.186 230.975 150.926C231.84 150.572 232.802 150.527 233.696 150.799L234.111 148.249Z" fill="url(#paint17_linear)"/>
<path d="M232.931 147.531L232.303 150.96L233.53 151.128L234.075 147.792L232.931 147.531Z" fill="#25233A"/>
<path d="M232.93 147.531L232.743 148.601L233.899 148.792L234.075 147.792L232.93 147.531Z" fill="#25233A"/>
<path d="M234.745 147.338L232.542 146.913L232.426 147.503L234.628 147.928L234.745 147.338Z" fill="#68E1FD"/>
<path d="M234.745 147.338L232.542 146.913L232.426 147.503L234.628 147.928L234.745 147.338Z" fill="url(#paint18_linear)"/>
<path d="M224.444 126.051C224.386 127.573 224.215 129.088 223.934 130.584C223.952 130.172 223.909 129.759 223.805 129.359C223.775 129.19 223.698 129.034 223.582 128.908C223.523 128.844 223.444 128.804 223.358 128.793C223.272 128.783 223.185 128.803 223.112 128.85C223.188 128.04 222.86 127.242 222.883 126.427C222.899 125.833 223.104 125.258 223.47 124.785C223.486 124.757 223.51 124.734 223.54 124.721C223.576 124.708 223.616 124.708 223.652 124.721C223.917 124.823 224.139 125.009 224.283 125.251C224.426 125.492 224.483 125.774 224.444 126.051Z" fill="#25233A"/>
<path d="M235.014 131.209L235.407 129.382C235.407 129.272 235.465 129.139 235.577 129.104C235.688 129.069 235.7 129.104 235.747 129.052C235.77 129.025 235.786 128.994 235.794 128.96L236.269 127.474C236.34 127.242 236.41 127.017 236.463 126.78C236.492 126.672 236.492 126.558 236.463 126.45C236.418 126.325 236.328 126.22 236.211 126.155C236.106 126.086 235.988 126.038 235.864 126.015C235.74 125.993 235.613 125.996 235.49 126.024C235.367 126.052 235.251 126.105 235.15 126.179C235.049 126.254 234.965 126.348 234.902 126.456C234.806 126.609 234.747 126.783 234.731 126.962C234.714 127.142 234.741 127.323 234.808 127.491C235.096 128.709 235.166 129.967 235.014 131.209Z" fill="#25233A"/>
<path d="M232.532 146.924L232.731 146.809L234.597 147.162L234.732 147.347L232.532 146.924Z" fill="#68E1FD"/>
<path d="M232.532 146.924L232.731 146.809L234.597 147.162L234.732 147.347L232.532 146.924Z" fill="url(#paint19_linear)"/>
<path d="M211.708 168.249C211.387 168.311 211.087 168.448 210.831 168.65C210.575 168.851 210.372 169.11 210.24 169.405C210.078 169.991 210.068 170.607 210.21 171.197C210.246 171.525 210.333 171.845 210.468 172.146C210.525 172.283 210.621 172.402 210.744 172.487C210.868 172.572 211.014 172.62 211.164 172.626C211.591 172.585 211.837 172.007 211.86 171.498C211.825 170.99 211.825 170.48 211.86 169.972C211.808 170.601 211.808 171.233 211.86 171.862C211.853 172.112 211.941 172.356 212.106 172.545C212.176 172.594 212.259 172.623 212.345 172.628C212.431 172.634 212.516 172.615 212.592 172.574C212.776 172.463 212.932 172.311 213.046 172.13C213.161 171.95 213.232 171.745 213.253 171.533C213.308 171.083 213.297 170.627 213.218 170.18C213.293 170.502 213.307 170.835 213.259 171.163C213.208 171.49 213.242 171.824 213.358 172.134C213.499 172.423 213.844 172.597 214.066 172.4C214.21 172.24 214.293 172.036 214.3 171.822C214.388 171.285 214.417 170.74 214.388 170.197C214.298 170.752 214.326 171.319 214.47 171.862C214.657 172.377 215.154 172.788 215.599 172.597C215.779 172.481 215.927 172.322 216.029 172.135C216.132 171.949 216.185 171.739 216.184 171.527C216.231 171.082 216.184 170.631 216.184 170.186C216.184 170.102 216.2 170.02 216.231 169.943C216.354 169.711 216.646 169.821 216.875 169.792C217.103 169.764 217.407 169.405 217.46 169.047C217.5 168.68 217.472 168.31 217.378 167.954C216.339 167.978 215.299 167.935 214.265 167.827C213.394 167.817 212.529 167.96 211.708 168.249Z" fill="url(#paint20_linear)"/>
<path d="M246.369 170.278C245.597 176.534 242.694 185.514 242.566 185.514C241.95 185.478 241.332 185.523 240.729 185.647C239.769 185.786 238.745 185.942 238.388 185.809C238.359 185.809 238.335 185.745 238.306 185.647C238.031 184.641 237.879 179.148 238.02 175.898V175.546C238.084 174.389 238.078 170.856 238.078 169.711L230.062 169.943L228.465 170.041C228.476 171.535 228.353 173.027 228.096 174.499C227.242 180.686 226.37 183.75 226.674 189.966C226.645 190.619 225.732 191.024 224.89 191.018C224.461 191.042 224.04 190.896 223.72 190.614C220.39 187.098 220.168 183.38 219.484 178.61C219.027 175.43 217.529 163.802 221.683 162.935C222.295 162.798 222.924 162.748 223.55 162.785C224.533 162.854 226.435 162.906 227.061 163.733C227.271 163.837 231.472 165.918 235.018 164.855L238.763 161.038C239.277 160.398 239.994 159.945 240.799 159.754C241.603 159.562 242.45 159.642 243.203 159.98C244.666 160.663 245.778 162.293 246.246 164.161C246.714 166.028 246.62 168.237 246.369 170.278Z" fill="url(#paint21_linear)"/>
<path d="M224.925 191.018C224.496 191.042 224.075 190.897 223.755 190.614C220.426 187.098 220.203 183.38 219.519 178.61C219.062 175.43 217.565 163.802 221.719 162.935C220.348 165.634 219.914 168.704 220.484 171.672C221.461 176.436 224.925 191.018 224.925 191.018Z" fill="url(#paint22_linear)"/>
<path d="M240.729 185.647C239.769 185.786 238.745 185.942 238.388 185.809C238.359 185.809 238.336 185.745 238.306 185.647C238.031 184.641 237.879 179.148 238.02 175.899V175.546C238.084 174.389 238.078 170.857 238.078 169.712L228.465 170.041L228.073 166.734C228.073 166.734 233.397 168.035 234.989 167.838C236.58 167.642 238.382 166.104 238.382 166.104C238.382 166.104 240.594 163.068 241.249 166.104C241.905 168.92 240.857 183.855 240.729 185.647Z" fill="url(#paint23_linear)"/>
<path d="M204.079 278.53C204.079 277.026 202.845 275.807 201.323 275.807C199.801 275.807 198.567 277.026 198.567 278.53V282.364C198.567 283.868 199.801 285.087 201.323 285.087C202.845 285.087 204.079 283.868 204.079 282.364V278.53Z" fill="white"/>
<path d="M204.079 63.4141C204.079 61.91 202.845 60.6908 201.323 60.6908C199.801 60.6908 198.567 61.91 198.567 63.4141V67.2476C198.567 68.7517 199.801 69.971 201.323 69.971C202.845 69.971 204.079 68.7517 204.079 67.2476V63.4141Z" fill="white"/>
<path d="M204.079 278.53C204.079 277.026 202.845 275.807 201.323 275.807C199.801 275.807 198.567 277.026 198.567 278.53V282.364C198.567 283.868 199.801 285.087 201.323 285.087C202.845 285.087 204.079 283.868 204.079 282.364V278.53Z" fill="white"/>
<path d="M124.938 93.5565C123.862 92.4929 122.117 92.4929 121.04 93.5565C119.964 94.6201 119.964 96.3446 121.04 97.4083L123.784 100.119C124.86 101.183 126.605 101.183 127.681 100.119C128.758 99.0556 128.758 97.3311 127.681 96.2675L124.938 93.5565Z" fill="white"/>
<path d="M278.865 245.665C277.788 244.601 276.043 244.601 274.967 245.665C273.891 246.729 273.891 248.453 274.967 249.517L277.71 252.228C278.787 253.291 280.532 253.291 281.608 252.228C282.684 251.164 282.684 249.44 281.608 248.376L278.865 245.665Z" fill="white"/>
<path d="M90.5389 170.168C89.0169 170.168 87.7831 171.388 87.7831 172.892C87.7831 174.396 89.0169 175.615 90.5389 175.615H94.4181C95.9401 175.615 97.1739 174.396 97.1739 172.892C97.1739 171.388 95.9401 170.168 94.4181 170.168H90.5389Z" fill="white"/>
<path d="M308.22 170.162C306.698 170.162 305.464 171.382 305.464 172.886C305.464 174.39 306.698 175.609 308.22 175.609H312.099C313.621 175.609 314.855 174.39 314.855 172.886C314.855 171.382 313.621 170.162 312.099 170.162H308.22Z" fill="white"/>
<path d="M121.04 248.377C119.963 249.441 119.963 251.165 121.04 252.229C122.116 253.292 123.861 253.292 124.937 252.229L127.681 249.518C128.757 248.454 128.757 246.73 127.681 245.666C126.604 244.602 124.859 244.602 123.783 245.666L121.04 248.377Z" fill="white"/>
<path d="M274.964 96.2622C273.888 97.3259 273.888 99.0504 274.964 100.114C276.04 101.178 277.785 101.178 278.862 100.114L281.605 97.403C282.681 96.3394 282.681 94.6149 281.605 93.5513C280.529 92.4877 278.784 92.4877 277.707 93.5513L274.964 96.2622Z" fill="white"/>
<path opacity="0.18" d="M91.1699 20C69.8433 28.538 47.05 34.4195 28.2671 47.6363C9.48408 60.8531 -4.72043 84.2534 1.4701 106.372C6.2732 123.501 22.288 136.896 23.0147 154.692C23.5961 168.88 14.2145 181.271 9.23302 194.567C-0.829051 221.43 7.87203 252.721 25.6772 275.19C43.4824 297.658 134.114 312.606 160.409 324.052C222.724 351.091 226.055 361.379 293.568 353.895C313.692 351.635 301.397 333.634 319.235 324.052C337.073 314.47 384.926 312.626 389.914 292.999C396.699 266.334 384.007 237.555 390.944 210.93C393.66 200.488 399.289 190.952 401.687 180.432C407.455 155.076 393.402 129.177 375.524 110.304C357.646 91.4301 335.58 76.6537 319.235 56.432C307.911 42.4289 299.613 26.1392 287.972 12.4004C265.099 -14.6346 218.763 10.7085 183.325 12.4002C148.117 14.0722 124.369 6.69732 91.1699 20Z" fill="#68E1FD"/>
<defs>
<linearGradient id="paint0_linear" x1="150.488" y1="-134.633" x2="230.658" y2="358.956" gradientUnits="userSpaceOnUse">
<stop stop-opacity="0"/>
<stop offset="0.88" stop-opacity="0.8"/>
<stop offset="0.97"/>
</linearGradient>
<linearGradient id="paint1_linear" x1="64482.9" y1="-57038.7" x2="53571.7" y2="240035" gradientUnits="userSpaceOnUse">
<stop stop-opacity="0"/>
<stop offset="0.88" stop-opacity="0.8"/>
<stop offset="0.97"/>
</linearGradient>
<linearGradient id="paint2_linear" x1="36.5402" y1="85.3688" x2="669.723" y2="427.626" gradientUnits="userSpaceOnUse">
<stop stop-color="white" stop-opacity="0"/>
<stop offset="0.84" stop-color="white" stop-opacity="0.84"/>
<stop offset="0.97" stop-color="white"/>
</linearGradient>
<linearGradient id="paint3_linear" x1="22281.5" y1="-19778.6" x2="17448.1" y2="56774" gradientUnits="userSpaceOnUse">
<stop stop-opacity="0"/>
<stop offset="0.88" stop-opacity="0.8"/>
<stop offset="0.97"/>
</linearGradient>
<linearGradient id="paint4_linear" x1="5232.44" y1="2627.29" x2="5154.07" y2="2803.32" gradientUnits="userSpaceOnUse">
<stop stop-opacity="0"/>
<stop offset="0.88" stop-opacity="0.8"/>
<stop offset="0.97"/>
</linearGradient>
<linearGradient id="paint5_linear" x1="230.215" y1="137.517" x2="227.963" y2="184.083" gradientUnits="userSpaceOnUse">
<stop stop-opacity="0"/>
<stop offset="0.5" stop-opacity="0.19"/>
<stop offset="0.55" stop-opacity="0.24"/>
<stop offset="0.97"/>
</linearGradient>
<linearGradient id="paint6_linear" x1="4627.71" y1="3168.35" x2="4529.55" y2="5170.57" gradientUnits="userSpaceOnUse">
<stop stop-opacity="0"/>
<stop offset="0.88" stop-opacity="0.8"/>
<stop offset="0.97"/>
</linearGradient>
<linearGradient id="paint7_linear" x1="2107.71" y1="1269.58" x2="2089.93" y2="1442.7" gradientUnits="userSpaceOnUse">
<stop stop-opacity="0"/>
<stop offset="0.5" stop-opacity="0.19"/>
<stop offset="0.55" stop-opacity="0.24"/>
<stop offset="0.97"/>
</linearGradient>
<linearGradient id="paint8_linear" x1="222.316" y1="130.706" x2="224.527" y2="130.706" gradientUnits="userSpaceOnUse">
<stop stop-color="#ECC4D7"/>
<stop offset="0.42" stop-color="#EFD4D1"/>
<stop offset="1" stop-color="#F2EAC9"/>
</linearGradient>
<linearGradient id="paint9_linear" x1="846.402" y1="767.338" x2="853.003" y2="767.338" gradientUnits="userSpaceOnUse">
<stop stop-color="#ECC4D7"/>
<stop offset="0.42" stop-color="#EFD4D1"/>
<stop offset="1" stop-color="#F2EAC9"/>
</linearGradient>
<linearGradient id="paint10_linear" x1="3810.49" y1="2955.23" x2="3822.92" y2="4245.53" gradientUnits="userSpaceOnUse">
<stop stop-opacity="0"/>
<stop offset="0.88" stop-opacity="0.8"/>
<stop offset="0.97"/>
</linearGradient>
<linearGradient id="paint11_linear" x1="1481.43" y1="1808.42" x2="1493.17" y2="1874.76" gradientUnits="userSpaceOnUse">
<stop stop-color="#ECC4D7"/>
<stop offset="0.42" stop-color="#EFD4D1"/>
<stop offset="1" stop-color="#F2EAC9"/>
</linearGradient>
<linearGradient id="paint12_linear" x1="3812.83" y1="2723.6" x2="3823.59" y2="3349.37" gradientUnits="userSpaceOnUse">
<stop stop-color="#ECC4D7"/>
<stop offset="0.42" stop-color="#EFD4D1"/>
<stop offset="1" stop-color="#F2EAC9"/>
</linearGradient>
<linearGradient id="paint13_linear" x1="2909.13" y1="5545.37" x2="3054.52" y2="5558.92" gradientUnits="userSpaceOnUse">
<stop stop-opacity="0"/>
<stop offset="0.5" stop-opacity="0.19"/>
<stop offset="0.55" stop-opacity="0.24"/>
<stop offset="0.97"/>
</linearGradient>
<linearGradient id="paint14_linear" x1="1257.82" y1="1476.5" x2="1250.65" y2="1611.44" gradientUnits="userSpaceOnUse">
<stop stop-color="#ECC4D7"/>
<stop offset="0.42" stop-color="#EFD4D1"/>
<stop offset="1" stop-color="#F2EAC9"/>
</linearGradient>
<linearGradient id="paint15_linear" x1="1427.82" y1="1246.99" x2="1423.72" y2="1344.21" gradientUnits="userSpaceOnUse">
<stop stop-color="#ECC4D7"/>
<stop offset="0.42" stop-color="#EFD4D1"/>
<stop offset="1" stop-color="#F2EAC9"/>
</linearGradient>
<linearGradient id="paint16_linear" x1="5757.46" y1="1827.82" x2="5743.42" y2="1936.01" gradientUnits="userSpaceOnUse">
<stop stop-opacity="0"/>
<stop offset="0.88" stop-opacity="0.8"/>
<stop offset="0.97"/>
</linearGradient>
<linearGradient id="paint17_linear" x1="3082.38" y1="1123.32" x2="2968.59" y2="1092.64" gradientUnits="userSpaceOnUse">
<stop stop-color="#ECC4D7"/>
<stop offset="0.42" stop-color="#EFD4D1"/>
<stop offset="1" stop-color="#F2EAC9"/>
</linearGradient>
<linearGradient id="paint18_linear" x1="926.815" y1="264.453" x2="926.803" y2="265.693" gradientUnits="userSpaceOnUse">
<stop stop-opacity="0"/>
<stop offset="0.88" stop-opacity="0.8"/>
<stop offset="0.97"/>
</linearGradient>
<linearGradient id="paint19_linear" x1="879.442" y1="251.071" x2="879.421" y2="252.324" gradientUnits="userSpaceOnUse">
<stop stop-color="white" stop-opacity="0"/>
<stop offset="0.84" stop-color="white" stop-opacity="0.84"/>
<stop offset="0.97" stop-color="white"/>
</linearGradient>
<linearGradient id="paint20_linear" x1="2193.89" y1="1301.61" x2="2286.57" y2="1301.61" gradientUnits="userSpaceOnUse">
<stop stop-color="#ECC4D7"/>
<stop offset="0.42" stop-color="#EFD4D1"/>
<stop offset="1" stop-color="#F2EAC9"/>
</linearGradient>
<linearGradient id="paint21_linear" x1="8727.43" y1="6850.72" x2="8873.84" y2="9121.37" gradientUnits="userSpaceOnUse">
<stop stop-color="white" stop-opacity="0"/>
<stop offset="0.84" stop-color="white" stop-opacity="0.84"/>
<stop offset="0.97" stop-color="white"/>
</linearGradient>
<linearGradient id="paint22_linear" x1="2015.64" y1="7092.58" x2="1879.31" y2="7093.69" gradientUnits="userSpaceOnUse">
<stop stop-opacity="0"/>
<stop offset="0.88" stop-opacity="0.8"/>
<stop offset="0.97"/>
</linearGradient>
<linearGradient id="paint23_linear" x1="245.386" y1="156.829" x2="225.43" y2="192.897" gradientUnits="userSpaceOnUse">
<stop stop-opacity="0"/>
<stop offset="0.91" stop-opacity="0.8"/>
<stop offset="1"/>
</linearGradient>
</defs>
</svg>
