<svg width="388" height="357" viewBox="0 0 388 357" fill="none" xmlns="http://www.w3.org/2000/svg">
<g clip-path="url(#clip0)">
<path opacity="0.18" d="M139.15 67.0285C132.142 80.5059 130.661 95.8062 120.981 108.178C106.298 126.951 76.9692 134.206 55.5391 148.222C34.2361 162.165 20.7047 184.154 22.8291 206.094C24.9534 228.034 44.0124 248.929 70.4093 255.192C79.5573 257.368 89.4832 257.912 97.7187 261.767C116.082 270.361 118.857 291.489 135.298 302.283C150.004 311.935 171.621 310.74 189.812 306.293C208.004 301.846 225.484 294.626 244.476 293.712C255.801 293.168 267.193 294.907 278.473 293.969C292.849 292.774 306.059 287.311 318.7 281.705C340.684 271.951 364.328 258.91 367.986 239.031C372.174 216.129 347.55 195.36 347.939 172.212C348.119 161.454 353.774 151.096 354.297 140.321C355.045 125.457 345.082 110.557 329.239 102.751C316.276 96.3561 300.479 94.7065 286.932 89.1422C268.569 81.5996 255.935 67.6262 240.355 56.8203C212.163 37.2706 155.487 35.5911 139.15 67.0285Z" fill="#68E1FD"/>
<path d="M258.703 135.521C261.067 132.826 266.041 132.378 269.923 133.495C273.805 134.613 276.917 136.92 280.141 138.97C283.364 141.02 287.075 142.92 291.196 142.974C292.842 142.974 294.51 142.711 296.133 142.938C297.626 143.19 298.964 143.847 299.919 144.799C300.874 145.75 301.386 146.937 301.369 148.156C289.533 147.614 277.674 148.83 266.392 151.742C260.835 153.176 254.424 154.951 249.51 152.405C247.677 151.449 246.264 149.955 244.214 149.351C239.988 148.108 235.238 151.144 230.952 150.003C229.105 149.501 227.728 148.293 226.098 147.427C220.705 144.564 213.217 145.777 207.517 143.321C207.034 143.155 206.599 142.91 206.242 142.601C205.885 142.292 205.613 141.926 205.445 141.528C205.146 140.392 206.403 139.304 207.802 138.976C209.2 138.647 210.689 138.838 212.14 138.922C215.865 139.12 219.589 138.526 222.934 137.201C224.34 136.639 225.798 135.928 227.354 136.107C230.443 136.46 232.717 140.123 235.492 139C233.465 139.818 234.221 134.368 234.58 133.842C235.747 132.162 239.547 130.979 241.738 130.531C247.947 129.246 255.18 131.164 258.703 135.521Z" fill="#68E1FD"/>
<path d="M258.703 135.521C261.067 132.826 266.041 132.378 269.923 133.495C273.805 134.613 276.917 136.92 280.141 138.97C283.364 141.02 287.075 142.92 291.196 142.974C292.842 142.974 294.51 142.711 296.133 142.938C297.626 143.19 298.964 143.847 299.919 144.799C300.874 145.75 301.386 146.937 301.369 148.156C289.533 147.614 277.674 148.83 266.392 151.742C260.835 153.176 254.424 154.951 249.51 152.405C247.677 151.449 246.264 149.955 244.214 149.351C239.988 148.108 235.238 151.144 230.952 150.003C229.105 149.501 227.728 148.293 226.098 147.427C220.705 144.564 213.217 145.777 207.517 143.321C207.034 143.155 206.599 142.91 206.242 142.601C205.885 142.292 205.613 141.926 205.445 141.528C205.146 140.392 206.403 139.304 207.802 138.976C209.2 138.647 210.689 138.838 212.14 138.922C215.865 139.12 219.589 138.526 222.934 137.201C224.34 136.639 225.798 135.928 227.354 136.107C230.443 136.46 232.717 140.123 235.492 139C233.465 139.818 234.221 134.368 234.58 133.842C235.747 132.162 239.547 130.979 241.738 130.531C247.947 129.246 255.18 131.164 258.703 135.521Z" fill="url(#paint0_linear)"/>
<path d="M215.611 0L135.478 68.2119H172.421V135.324H253.774V67.662H288.825L215.611 0Z" fill="#68E1FD"/>
<path d="M39.0229 130.441L88.4732 87.0742L139.554 129.592H108.183V184.345H64.6344V130.441H39.0229Z" fill="#68E1FD"/>
<path d="M286.551 108.393L336.001 65.0263L387.082 107.544H355.711V162.297H312.162V108.393H286.551Z" fill="#68E1FD"/>
<path d="M203.807 189.76C203.807 189.76 203.867 243.257 200.89 248.265C198.549 252.204 178.069 258.001 169.429 260.302C167.088 260.93 165.607 261.295 165.607 261.295L167.268 235.762C166.588 239.218 165.521 242.619 164.081 245.923C162.069 250.291 159.04 254.176 154.791 253.095C145.867 250.829 143.354 249.509 143.354 249.509L139.554 238.751C139.554 238.751 153.841 233.599 154.11 227.341C154.38 221.083 158.95 202.353 171.359 198.217L173.917 197.362L183.768 194.081C183.768 194.081 191.996 173.802 190.216 156.78C188.436 139.759 190.216 137.207 190.216 137.207H202.753C202.753 137.207 203.59 154.641 203.807 159.506C204.024 164.371 203.807 189.76 203.807 189.76Z" fill="#3F3D56"/>
<path d="M194.539 180.442C193.156 184.871 190.971 189.108 188.795 193.328C187.673 195.121 187 199.041 184.711 200.201C182.272 201.438 177.777 198.808 175.48 197.983C174.964 197.792 174.433 197.595 173.917 197.386L183.768 194.105C183.768 194.105 191.996 173.826 190.216 156.804C188.436 139.783 190.216 137.231 190.216 137.231H191.487C191.69 137.31 191.879 137.41 192.048 137.529C193.283 138.372 193.462 139.818 193.544 141.115C193.829 144.845 194.105 148.622 193.2 152.286C192.642 153.999 192.2 155.734 191.876 157.485C191.682 159.249 192.071 161.149 193.537 162.476C194.225 163.074 195.138 163.576 195.631 164.305C196.013 164.951 196.205 165.658 196.192 166.373C196.522 171.102 195.965 175.844 194.539 180.442Z" fill="#25233A"/>
<path d="M173.297 254.911C172.68 255.706 172.178 256.554 171.801 257.44C171.699 257.851 171.541 258.251 171.329 258.635C171.106 258.94 170.826 259.216 170.499 259.454L169.422 260.326C167.081 260.954 165.6 261.318 165.6 261.318L167.26 235.786C166.58 239.242 165.514 242.643 164.074 245.946C164.635 241.5 166.527 235.051 166.602 232.439C166.73 228.693 167.544 224.982 169.018 221.424C170.222 222.099 170.619 223.355 170.843 224.508C171.726 228.991 171.427 233.64 173.087 237.979C174.172 240.818 176.079 243.508 176.326 246.478C176.573 249.449 175.092 252.312 173.297 254.911Z" fill="#25233A"/>
<path d="M172.174 240.663L166.093 245.331C165.779 245.573 165.374 245.726 164.941 245.767L128.341 249.353C127.873 249.402 127.398 249.317 127.001 249.112C126.603 248.907 126.31 248.597 126.172 248.236L117.772 226.391C117.687 226.165 117.665 225.927 117.707 225.693C117.75 225.459 117.856 225.236 118.017 225.038C118.179 224.841 118.393 224.674 118.644 224.549C118.895 224.425 119.177 224.345 119.47 224.317L153.429 221.227C153.895 221.184 154.365 221.273 154.757 221.478C155.149 221.684 155.439 221.992 155.576 222.351L161.119 236.76C161.373 237.436 161.583 237.896 161.583 237.896H170.798C171.198 237.899 171.588 237.997 171.918 238.177C172.247 238.358 172.503 238.613 172.65 238.91C172.798 239.207 172.832 239.532 172.747 239.844C172.662 240.157 172.463 240.442 172.174 240.663Z" fill="#68E1FD"/>
<path d="M189.767 132.527C189.721 132.335 189.732 132.136 189.801 131.948C189.87 131.76 189.994 131.587 190.164 131.445C190.358 131.348 190.586 131.303 190.814 131.316C191.042 131.329 191.26 131.399 191.435 131.517C191.788 131.752 192.07 132.049 192.258 132.384L193.238 133.8C193.466 134.194 193.801 134.543 194.218 134.822C194.93 135.133 195.749 135.25 196.552 135.157L200.546 135.019C200.717 135.004 200.891 135.027 201.047 135.085C201.153 135.157 201.234 135.25 201.281 135.355C201.328 135.46 201.34 135.573 201.316 135.683C201.302 136.202 201.143 136.712 200.852 137.177L196.365 137.308C195.13 137.344 193.2 137.703 192.026 137.404C190.246 136.932 189.849 133.794 189.767 132.527Z" fill="url(#paint1_linear)"/>
<path d="M202.334 307.71C201.915 309.724 197.846 319.029 197.846 319.029L194.779 317.44L190.762 315.36C190.762 315.36 198.07 288.644 197.419 285.913C196.769 283.181 191.682 276.123 191.682 276.123L188.197 340.414L179.221 343.181C179.221 343.181 164.769 273.816 165.585 261.301L200.868 248.271C200.868 248.271 211.34 272.901 212.596 278.107C213.853 283.313 202.76 305.695 202.334 307.71Z" fill="#68E1FD"/>
<path d="M189.162 322.508L204.87 330.433C204.87 330.433 206.717 328.006 203.8 324.946C200.883 321.886 197.816 319.029 197.816 319.029L190.717 315.36L189.162 322.508Z" fill="#3F3D56"/>
<path d="M179.243 343.181C179.243 343.181 174.209 350.73 176.094 354.752C177.979 358.774 182.235 353.855 184.703 350.897C186.798 348.375 189.146 343.181 189.146 343.181L188.196 340.414L179.243 343.181Z" fill="#3F3D56"/>
<path d="M205.43 282.303L194.779 317.439L190.762 315.36C190.762 315.36 198.07 288.644 197.419 285.912C196.769 283.181 191.682 276.123 191.682 276.123C191.682 276.123 195.826 270.254 197.3 271.509C198.773 272.764 205.43 282.303 205.43 282.303Z" fill="url(#paint2_linear)"/>
<path d="M171.659 259.059L181.098 342.607L179.243 343.205C179.243 343.205 164.814 273.523 165.607 261.325L171.659 259.059Z" fill="url(#paint3_linear)"/>
<path d="M170.783 237.872L163.7 243.096L161.119 236.76C161.373 237.436 161.583 237.896 161.583 237.896L170.783 237.872Z" fill="url(#paint4_linear)"/>
<path d="M117.772 226.414L151.515 223.468C152.086 223.418 152.662 223.524 153.149 223.77C153.635 224.015 154.003 224.385 154.193 224.819L163.475 245.91L128.319 249.377L117.772 226.414Z" fill="url(#paint5_linear)"/>
<path d="M182.624 188.809C181.756 190.351 183.769 194.105 183.769 194.105C183.769 194.105 185.945 197.434 185.212 200.793C185.212 200.954 185.13 201.121 185.085 201.283C183.993 204.803 170.005 201.079 170.432 196.161C170.858 191.242 164.051 178.703 164.051 178.703C168.046 164.616 181.136 169.08 182.302 169.833C183.469 170.586 187.823 181.721 186.633 184.249C186.295 184.982 185.808 185.664 185.19 186.269C184.217 187.249 183.193 187.799 182.624 188.809Z" fill="url(#paint6_linear)"/>
<path d="M182.302 169.845C182.302 169.845 184.262 165.949 182.302 164.562C180.343 163.175 177.066 162.805 173.364 162.679C169.661 162.554 168.502 162.046 165.607 164.562C162.712 167.078 161.74 171.017 159.945 171.692C158.15 172.368 156.579 174.639 157.521 176.88C158.464 179.121 160.827 182.689 161.299 182.809C161.77 182.928 165.001 185.696 165.158 187.333C165.315 188.971 169.482 189.76 169.482 189.76L169.25 183.305C169.25 183.305 168.779 185.002 166.811 183.556C164.844 182.11 167.754 180.412 167.986 180.478C168.218 180.544 165.742 177.167 166.527 175.517C167.313 173.868 171.823 164.957 182.302 169.845Z" fill="#3F3D56"/>
<path d="M185.212 200.817C185.088 201.068 184.899 201.296 184.659 201.486C184.285 201.737 183.833 201.903 183.351 201.966C182.87 202.029 182.376 201.987 181.921 201.845C181.02 201.543 180.23 201.064 179.625 200.452C178.254 199.184 177.262 197.684 176.724 196.064C176.186 194.445 176.117 192.749 176.52 191.104C176.648 190.506 176.922 189.933 177.328 189.419C178.316 188.272 180.163 187.859 181.779 187.327C183.395 186.795 184.576 185.929 185.19 186.293C184.217 187.261 183.193 187.811 182.624 188.821C181.756 190.363 183.769 194.117 183.769 194.117C183.769 194.117 185.945 197.434 185.212 200.817Z" fill="url(#paint7_linear)"/>
<path d="M258.867 171.83C257.371 177.209 261.441 183.185 267.888 185.068C273.311 186.652 279.31 185.498 285.092 185.504C295.205 185.504 304.817 189.162 314.908 189.688C321.588 190.029 328.267 189.001 334.311 186.7C337.804 185.367 341.162 183.598 345 183.209C348.216 182.881 351.574 183.562 354.686 182.821C359.975 181.566 362.615 176.193 360.708 172.063C358.8 167.933 353.347 165.285 347.849 164.891C342.509 164.532 336.988 165.99 331.857 164.759C326.12 163.385 322.186 158.95 316.486 157.468C308.138 155.304 299.693 160.074 292.939 164.556C292.217 162.938 290.904 161.53 289.171 160.514C287.438 159.497 285.363 158.919 283.215 158.854C278.802 158.783 274.441 161.711 270.432 163.038C265.091 164.867 260.289 166.827 258.867 171.83Z" fill="#68E1FD"/>
<path d="M258.867 171.83C257.371 177.209 261.441 183.185 267.888 185.068C273.311 186.652 279.31 185.498 285.092 185.504C295.205 185.504 304.817 189.162 314.908 189.688C321.588 190.029 328.267 189.001 334.311 186.7C337.804 185.367 341.162 183.598 345 183.209C348.216 182.881 351.574 183.562 354.686 182.821C359.975 181.566 362.615 176.193 360.708 172.063C358.8 167.933 353.347 165.285 347.849 164.891C342.509 164.532 336.988 165.99 331.857 164.759C326.12 163.385 322.186 158.95 316.486 157.468C308.138 155.304 299.693 160.074 292.939 164.556C292.217 162.938 290.904 161.53 289.171 160.514C287.438 159.497 285.363 158.919 283.215 158.854C278.802 158.783 274.441 161.711 270.432 163.038C265.091 164.867 260.289 166.827 258.867 171.83Z" fill="url(#paint8_linear)"/>
<path d="M0.300048 180.687C-1.19595 186.066 2.87317 192.043 9.3284 193.925C14.7514 195.509 20.7429 194.35 26.5324 194.362C36.6378 194.362 46.2496 198.013 56.3401 198.545C63.0233 198.887 69.7048 197.858 75.7507 195.557C79.2439 194.23 82.5949 192.455 86.4396 192.067C89.656 191.744 93.0145 192.425 96.1262 191.684C101.407 190.429 104.055 185.05 102.148 180.926C100.24 176.802 94.7798 174.143 89.2895 173.754C83.9488 173.39 78.4285 174.848 73.2973 173.623C67.5526 172.248 63.6182 167.807 57.9259 166.331C49.5782 164.162 41.1333 168.937 34.3789 173.413C33.6556 171.797 32.3427 170.39 30.6096 169.375C28.8764 168.359 26.8024 167.782 24.6549 167.718C20.2417 167.646 15.8809 170.569 11.8716 171.901C6.5234 173.724 1.73621 175.714 0.300048 180.687Z" fill="#68E1FD"/>
<path d="M0.300048 180.687C-1.19595 186.066 2.87317 192.043 9.3284 193.925C14.7514 195.509 20.7429 194.35 26.5324 194.362C36.6378 194.362 46.2496 198.013 56.3401 198.545C63.0233 198.887 69.7048 197.858 75.7507 195.557C79.2439 194.23 82.5949 192.455 86.4396 192.067C89.656 191.744 93.0145 192.425 96.1262 191.684C101.407 190.429 104.055 185.05 102.148 180.926C100.24 176.802 94.7798 174.143 89.2895 173.754C83.9488 173.39 78.4285 174.848 73.2973 173.623C67.5526 172.248 63.6182 167.807 57.9259 166.331C49.5782 164.162 41.1333 168.937 34.3789 173.413C33.6556 171.797 32.3427 170.39 30.6096 169.375C28.8764 168.359 26.8024 167.782 24.6549 167.718C20.2417 167.646 15.8809 170.569 11.8716 171.901C6.5234 173.724 1.73621 175.714 0.300048 180.687Z" fill="url(#paint9_linear)"/>
<path d="M140.639 249.317C141.399 249.441 142.18 249.463 142.95 249.383L147.116 249.15C147.654 249.134 148.187 249.064 148.702 248.941C149.16 248.806 149.569 248.585 149.895 248.295C150.221 248.006 150.453 247.657 150.572 247.279C150.613 247.168 150.613 247.05 150.572 246.939C150.43 246.598 149.824 246.622 149.428 246.825C149.031 247.028 148.762 247.345 148.321 247.423C148.083 247.439 147.844 247.417 147.618 247.357L145.261 246.879C145.129 246.843 144.989 246.831 144.85 246.843C144.334 246.909 144.289 247.482 144.371 247.895C144.212 247.726 144.008 247.588 143.774 247.489C143.54 247.391 143.281 247.336 143.017 247.327C142.752 247.329 142.498 247.413 142.311 247.563C142.123 247.713 142.017 247.916 142.015 248.128L141.087 247.53C140.96 247.453 140.788 247.369 140.646 247.435C140.578 247.479 140.531 247.54 140.512 247.608L140.197 248.247C140.28 248.08 139.016 247.65 138.933 248.247C138.888 248.761 140.212 249.228 140.639 249.317Z" fill="url(#paint10_linear)"/>
</g>
<defs>
<linearGradient id="paint0_linear" x1="258.867" y1="128.092" x2="252.641" y2="157.537" gradientUnits="userSpaceOnUse">
<stop stop-color="white" stop-opacity="0"/>
<stop offset="0.06" stop-color="white" stop-opacity="0.13"/>
<stop offset="0.16" stop-color="white" stop-opacity="0.33"/>
<stop offset="0.26" stop-color="white" stop-opacity="0.51"/>
<stop offset="0.37" stop-color="white" stop-opacity="0.66"/>
<stop offset="0.48" stop-color="white" stop-opacity="0.79"/>
<stop offset="0.59" stop-color="white" stop-opacity="0.88"/>
<stop offset="0.71" stop-color="white" stop-opacity="0.95"/>
<stop offset="0.84" stop-color="white" stop-opacity="0.99"/>
<stop offset="1" stop-color="white"/>
</linearGradient>
<linearGradient id="paint1_linear" x1="189.76" y1="134.41" x2="201.316" y2="134.41" gradientUnits="userSpaceOnUse">
<stop stop-color="#ECC4D7"/>
<stop offset="0.42" stop-color="#EFD4D1"/>
<stop offset="1" stop-color="#F2EAC9"/>
</linearGradient>
<linearGradient id="paint2_linear" x1="222.844" y1="284.43" x2="91.9153" y2="359.434" gradientUnits="userSpaceOnUse">
<stop stop-opacity="0.07"/>
<stop offset="0.08" stop-opacity="0.25"/>
<stop offset="1"/>
</linearGradient>
<linearGradient id="paint3_linear" x1="5748.27" y1="42976.5" x2="8818.76" y2="42894.6" gradientUnits="userSpaceOnUse">
<stop stop-opacity="0.07"/>
<stop offset="0.08" stop-opacity="0.25"/>
<stop offset="1"/>
</linearGradient>
<linearGradient id="paint4_linear" x1="3816.89" y1="2727.78" x2="3526.08" y2="3110.69" gradientUnits="userSpaceOnUse">
<stop stop-opacity="0.07"/>
<stop offset="0.08" stop-opacity="0.25"/>
<stop offset="1"/>
</linearGradient>
<linearGradient id="paint5_linear" x1="143.332" y1="245.934" x2="151.181" y2="290.331" gradientUnits="userSpaceOnUse">
<stop stop-opacity="0.07"/>
<stop offset="0.52" stop-opacity="0.83"/>
<stop offset="0.56" stop-opacity="0.87"/>
<stop offset="1"/>
</linearGradient>
<linearGradient id="paint6_linear" x1="8615.8" y1="10759.6" x2="9309.86" y2="10759.6" gradientUnits="userSpaceOnUse">
<stop stop-color="#ECC4D7"/>
<stop offset="0.42" stop-color="#EFD4D1"/>
<stop offset="1" stop-color="#F2EAC9"/>
</linearGradient>
<linearGradient id="paint7_linear" x1="3691.46" y1="5071.17" x2="4474.53" y2="5769.87" gradientUnits="userSpaceOnUse">
<stop stop-color="#ECC4D7"/>
<stop offset="0.42" stop-color="#EFD4D1"/>
<stop offset="1" stop-color="#F2EAC9"/>
</linearGradient>
<linearGradient id="paint8_linear" x1="314.414" y1="155.43" x2="307.117" y2="203.945" gradientUnits="userSpaceOnUse">
<stop offset="0.02" stop-color="white" stop-opacity="0"/>
<stop offset="0.06" stop-color="white" stop-opacity="0.13"/>
<stop offset="0.13" stop-color="white" stop-opacity="0.33"/>
<stop offset="0.2" stop-color="white" stop-opacity="0.51"/>
<stop offset="0.27" stop-color="white" stop-opacity="0.66"/>
<stop offset="0.35" stop-color="white" stop-opacity="0.79"/>
<stop offset="0.43" stop-color="white" stop-opacity="0.88"/>
<stop offset="0.51" stop-color="white" stop-opacity="0.95"/>
<stop offset="0.6" stop-color="white" stop-opacity="0.99"/>
<stop offset="0.71" stop-color="white"/>
</linearGradient>
<linearGradient id="paint9_linear" x1="22594.1" y1="9085.8" x2="22604.4" y2="11525.2" gradientUnits="userSpaceOnUse">
<stop stop-color="white" stop-opacity="0"/>
<stop offset="0.06" stop-color="white" stop-opacity="0.13"/>
<stop offset="0.16" stop-color="white" stop-opacity="0.33"/>
<stop offset="0.26" stop-color="white" stop-opacity="0.51"/>
<stop offset="0.37" stop-color="white" stop-opacity="0.66"/>
<stop offset="0.48" stop-color="white" stop-opacity="0.79"/>
<stop offset="0.59" stop-color="white" stop-opacity="0.88"/>
<stop offset="0.71" stop-color="white" stop-opacity="0.95"/>
<stop offset="0.84" stop-color="white" stop-opacity="0.99"/>
<stop offset="1" stop-color="white"/>
</linearGradient>
<linearGradient id="paint10_linear" x1="4076.26" y1="1389.51" x2="4258.21" y2="1389.51" gradientUnits="userSpaceOnUse">
<stop stop-color="#ECC4D7"/>
<stop offset="0.42" stop-color="#EFD4D1"/>
<stop offset="1" stop-color="#F2EAC9"/>
</linearGradient>
<clipPath id="clip0">
<rect width="387.082" height="356.27" fill="white"/>
</clipPath>
</defs>
</svg>
