<svg width="30" height="44" viewBox="0 0 30 44" fill="none" xmlns="http://www.w3.org/2000/svg">
<path fill-rule="evenodd" clip-rule="evenodd" d="M27.6642 33.0728C28.1509 33.4128 28.6618 33.8499 29.1971 34.3841C29.7324 34.9183 30 35.5497 30 36.2781V42.4702C30 42.9073 29.854 43.2715 29.562 43.5629C29.2701 43.8543 28.9051 44 28.4672 44C28.3698 44 28.2603 43.9879 28.1387 43.9636C28.017 43.9393 27.8589 43.8786 27.6642 43.7815L2.11679 26.5894C1.43552 26.1523 0.91241 25.7274 0.547445 25.3146C0.18248 24.9018 -1.13461e-07 24.3068 -1.13461e-07 23.5298V20.4702C-1.13461e-07 19.6932 0.18248 19.0982 0.547445 18.6854C0.91241 18.2726 1.43552 17.8477 2.11679 17.4106L27.6642 0.218542C27.8589 0.121411 28.017 0.0607046 28.1387 0.0364219C28.2603 0.0121392 28.3698 -8.57221e-07 28.4672 -8.57221e-07C28.9051 -8.57221e-07 29.2701 0.145693 29.562 0.437085C29.854 0.728477 30 1.09271 30 1.5298V7.72185C30 8.45033 29.7324 9.08168 29.1971 9.61589C28.6618 10.1501 28.1509 10.5872 27.6642 10.9272L11.1679 22L27.6642 33.0728Z" fill="#E0E0E0"/>
</svg>
