<svg width="388" height="334" viewBox="0 0 388 334" fill="none" xmlns="http://www.w3.org/2000/svg">
<g clip-path="url(#clip0)">
<path opacity="0.18" d="M133.748 24.2629C117.72 43.7206 113.518 70.906 92.1967 88.0051C81.4535 96.6555 67.5846 101.909 55.0405 108.657C29.1864 122.555 8.2796 144.008 1.91095 169.1C-3.7263 190.986 2.95974 218.759 24.0391 233.973C34.8858 241.781 44.1179 245.974 51.9286 256.815C60.3811 268.551 64.8936 279.307 77.7551 288.136C90.175 296.682 104.23 303.476 118.113 310.235C132.603 317.282 147.272 324.398 163.356 328.366C180.116 332.507 197.814 333.072 215.292 333.124C240.27 333.199 266.814 331.855 287.265 319.86C305.26 309.318 313.795 293.24 323.566 277.507C333.336 261.775 344.811 248.096 356.83 233.367C368.236 219.469 379.828 205.172 384.106 188.731C386.687 178.456 386.306 167.815 382.995 157.687C380.29 149.273 381.159 139.942 375.702 132.405C368.068 121.889 357.915 112.806 345.88 105.727C333.86 98.6682 320.212 93.7605 308.11 86.7998C296.007 79.839 285.085 70.0756 282.621 57.965C281.69 53.4033 282.007 48.7378 281.31 44.1243C279.282 30.6584 268.401 18.865 254.642 11.6044C240.884 4.34381 224.503 1.28155 208.268 0.312702C190.969 -0.742651 173.078 0.629885 157.401 6.91587C147.01 11.0969 139.586 17.1638 133.748 24.2629Z" fill="#68E1FD"/>
<path d="M94.9498 120.091C93.3766 118.05 92.9902 115.547 92.0104 113.257C91.0306 110.968 89.0435 108.644 86.1593 108.384C83.2751 108.125 80.7221 110.01 78.9213 111.937C77.8854 112.96 77.081 114.133 76.5477 115.397C76.2153 116.29 76.1099 117.231 76.2383 118.16C76.3667 119.09 76.726 119.986 77.2931 120.792C77.8602 121.599 78.6227 122.297 79.5317 122.843C80.4406 123.388 81.476 123.769 82.5713 123.961C84.0203 124.215 85.5797 124.145 86.9045 124.693C87.8025 125.143 88.6182 125.698 89.3264 126.343C91.003 127.652 93.1489 128.747 95.4397 128.62C97.4683 128.505 100.097 126.781 99.5038 124.866C98.9518 123.096 96.1297 121.619 94.9498 120.091Z" fill="url(#paint0_linear)"/>
<path d="M72.4355 160.858V286.537C72.4355 286.537 72.4355 295.032 82.5992 295.931C92.7628 296.831 295.573 295.931 295.573 295.931C295.573 295.931 303.066 296.375 306.813 287.858C310.559 279.34 306.813 160.835 306.813 160.835L72.4355 160.858Z" fill="#68E1FD"/>
<path opacity="0.69" d="M72.4355 160.858V286.537C72.4355 286.537 72.4355 295.032 82.5992 295.931C92.7628 296.831 295.573 295.931 295.573 295.931C295.573 295.931 303.066 296.375 306.813 287.858C310.559 279.34 306.813 160.835 306.813 160.835L72.4355 160.858Z" fill="url(#paint1_linear)"/>
<path d="M192.833 74.9877L72.4355 160.858L152.937 218.764C157.964 222.38 164.376 224.369 171.008 224.369H211.421C216 224.37 220.427 222.997 223.896 220.5L306.813 160.858L192.833 74.9877Z" fill="#68E1FD"/>
<path d="M192.833 74.9877L72.4355 160.858L151.785 217.951C157.543 222.092 164.888 224.369 172.485 224.369H209.648C215.388 224.368 220.938 222.647 225.29 219.519L306.813 160.858L192.833 74.9877Z" fill="url(#paint2_linear)"/>
<path d="M245.003 141.7C244.969 141.856 244.934 142.017 244.907 142.173C243.285 149.773 238.412 156.621 231.196 161.44C227.243 164.064 222.489 166.158 220.094 169.872C218.59 172.178 218.204 174.895 217.9 177.536C216.106 192.968 215.34 208.055 217.355 223.47L211.835 224.369H189.141C186.947 224.369 180.109 224.86 174.003 224.848H173.968C169.138 224.848 164.715 224.479 163.515 223.302C163.472 223.264 163.435 223.221 163.404 223.176C163.348 223.114 163.3 223.049 163.26 222.979C163.204 222.899 163.142 222.818 163.087 222.726C163.032 222.633 162.963 222.518 162.901 222.409L162.839 222.305C161.224 219.248 161.369 213.948 160.996 210.973C160.472 206.74 160.141 202.478 159.575 198.245C158.402 189.67 156.056 180.869 149.784 174.024C148.88 173.043 147.224 171.504 145.127 169.652C137.675 163.072 124.599 152.536 119.597 148.851C118.789 148.274 90.4789 129.987 90.2236 129.122C89.5337 126.619 97.8619 123.257 99.1936 120.951C108.509 125.426 145.278 147.53 154.579 152.011C159.092 154.18 163.674 156.377 168.731 157.421C179.364 159.618 190.425 156.458 200.733 153.338C207.806 151.198 217.252 147.928 224.683 144.111C227.891 142.467 232.777 139.243 228.223 139.393C220.577 139.641 212.394 139.163 206.094 139.434C205.767 139.491 205.428 139.487 205.103 139.422C204.777 139.357 204.472 139.233 204.211 139.059C203.882 138.664 203.753 138.177 203.852 137.704C204.135 133.055 203.21 132.928 204.949 128.505C211.67 129.889 219.701 128.667 226.615 128.736C234.018 128.805 237.11 127.9 241.829 132.121C243.079 133.167 244.056 134.418 244.7 135.795C245.528 137.663 245.369 139.728 245.003 141.7Z" fill="#68E1FD"/>
<path d="M173.023 158.061C174.817 160.506 174.313 162.098 177.011 163.868C178.281 164.704 183.677 165.598 185.788 164.26C188.424 162.57 188.113 157.749 188.162 157.421C188.18 156.876 188.033 156.336 187.734 155.852C186.86 154.266 186.09 152.641 185.429 150.985C184.759 149.31 184.666 147.511 185.16 145.794C184.581 145.32 183.891 144.949 183.134 144.705C182.377 144.461 181.569 144.349 180.758 144.376C179.217 144.547 177.751 145.032 176.487 145.789C175.5 146.365 172.43 142.236 171.795 143.078C171.243 143.839 172.975 156.048 173.023 158.061Z" fill="url(#paint3_linear)"/>
<path d="M171.623 140.864C171.623 140.864 174.507 152.732 180.096 155.437C185.685 158.142 188.086 156.498 188.086 156.498L183.835 147.496L171.623 140.864Z" fill="url(#paint4_linear)"/>
<path d="M181.793 151.094C182.932 151.217 184.09 151.154 185.201 150.91C187.961 150.154 189.286 147.311 188.941 144.566C188.596 141.821 186.926 139.174 185.077 136.763C182.776 133.755 180.13 130.941 177.177 128.361C175.602 126.864 173.735 125.601 171.657 124.624C170.288 124.033 168.786 123.691 167.248 123.62C165.711 123.55 164.172 123.752 162.735 124.214C160.001 125.189 157.775 126.951 156.463 129.18C155.026 131.441 154.498 134.03 154.959 136.561C156.829 146.313 173.154 150.512 181.793 151.094Z" fill="url(#paint5_linear)"/>
<path d="M190.797 135.172C189.824 135.673 188.541 135.449 187.533 134.999C186.047 134.339 184.918 133.229 184.38 131.896C184.121 131.229 184.038 130.523 184.134 129.827C184.23 129.13 184.505 128.459 184.939 127.859C185.629 126.971 186.65 126.233 186.871 125.206C186.871 125.206 194.971 119.843 196.4 112.242C197.828 104.641 207.102 111.666 207.102 111.666C207.102 111.666 217.369 119.284 212.525 123.972C212.042 124.406 211.43 124.727 210.752 124.901C210.074 125.075 209.353 125.097 208.661 124.964C206.591 124.63 202.513 124.895 196.641 129.503L190.797 135.172Z" fill="white"/>
<path d="M196.642 129.503C195.585 129.38 194.507 129.473 193.502 129.774C192.426 130.272 191.558 131.035 191.018 131.96C190.509 132.607 190.2 133.35 190.121 134.122C190.087 135.154 190.749 136.1 191.398 136.977C191.754 137.567 192.275 138.077 192.916 138.465C193.592 138.752 194.338 138.908 195.096 138.92C196.338 139.024 197.684 139.099 198.746 138.545C199.152 138.266 199.586 138.017 200.044 137.801C201.348 137.352 203.107 138.222 204.128 137.415C204.557 136.971 204.773 136.41 204.735 135.841L204.991 132.49C205.067 131.544 205.563 130.552 204.363 130.212C202.162 129.589 198.967 129.503 196.642 129.503Z" fill="url(#paint6_linear)"/>
<path d="M198.539 136.262C198.539 136.262 206.571 143.119 208.889 143.119C211.208 143.119 205.674 149.681 203.004 148.488C200.333 147.294 195.096 138.92 195.096 138.92C195.096 138.92 196.58 136.337 197.339 136.112C197.536 136.041 197.752 136.017 197.965 136.044C198.177 136.07 198.376 136.146 198.539 136.262V136.262Z" fill="white"/>
<path d="M212.221 122.911C214.037 121.648 212.536 117.635 208.867 113.947C205.198 110.258 200.751 108.292 198.934 109.554C197.117 110.817 198.619 114.83 202.288 118.518C205.957 122.207 210.404 124.173 212.221 122.911Z" fill="#68E1FD"/>
<path d="M212.221 122.911C214.037 121.648 212.536 117.635 208.867 113.947C205.198 110.258 200.751 108.292 198.934 109.554C197.117 110.817 198.619 114.83 202.288 118.518C205.957 122.207 210.404 124.173 212.221 122.911Z" fill="url(#paint7_linear)"/>
<path d="M172.043 122.594C171.409 124.686 169.975 126.547 167.958 127.894C166.799 128.719 165.502 129.411 164.363 130.258C163.165 131.062 162.281 132.146 161.824 133.372C161.466 134.932 161.839 136.547 162.866 137.882C163.885 139.198 165.01 140.454 166.233 141.642C166.397 141.773 166.52 141.936 166.591 142.116C166.662 142.296 166.679 142.488 166.64 142.675C166.468 143.078 165.847 143.194 165.336 143.165C164.716 143.13 164.114 142.976 163.577 142.715C163.291 142.541 162.964 142.421 162.618 142.363C162.319 142.375 162.037 142.479 161.828 142.657C161.618 142.834 161.496 143.071 161.486 143.32C161.485 143.825 161.692 144.314 162.072 144.705C162.675 145.403 163.453 145.983 164.351 146.405C165.25 146.826 166.248 147.078 167.275 147.144C167.304 147.229 167.314 147.318 167.302 147.405C167.29 147.493 167.257 147.578 167.206 147.655C167.155 147.732 167.086 147.8 167.003 147.855C166.92 147.91 166.825 147.95 166.723 147.974C166.303 148.058 165.863 148.034 165.46 147.905C164.391 147.651 163.349 147.328 162.314 147L158.305 145.737C156.704 145.241 155.103 144.745 153.53 144.197C152.298 143.851 151.178 143.271 150.26 142.502C149.273 141.556 148.88 140.264 148.659 139.041C148.314 137.842 148.328 136.59 148.7 135.397C149.142 134.289 150.149 133.338 150.253 132.179C150.356 131.02 149.466 129.872 148.797 128.811C148.024 127.565 147.52 126.1 148.024 124.774C148.473 123.73 149.371 122.862 150.543 122.34C151.704 121.823 152.965 121.481 154.269 121.331C155.4 121.164 156.621 121.031 157.484 120.391C159.457 118.938 158.415 115.777 160.492 114.451C162.707 113.015 166.261 114.832 168.324 115.783C169.763 116.41 170.91 117.421 171.583 118.655C172.257 119.888 172.419 121.275 172.043 122.594V122.594Z" fill="#3F3D56"/>
<path d="M82.5991 295.931L146.265 237.616C150.82 233.439 156.367 230.103 162.552 227.819C168.737 225.535 175.424 224.354 182.186 224.352H196.862C203.679 224.352 210.42 225.55 216.647 227.868C222.875 230.186 228.45 233.572 233.011 237.806L295.573 295.914L82.5991 295.931Z" fill="#68E1FD"/>
<path d="M82.5991 295.931L145.975 237.881C150.623 233.625 156.282 230.224 162.591 227.898C168.899 225.572 175.719 224.37 182.614 224.369H196.414C203.367 224.37 210.243 225.592 216.596 227.956C222.948 230.321 228.635 233.775 233.287 238.095L295.559 295.931H82.5991Z" fill="url(#paint8_linear)"/>
<path d="M334.64 102.715C334.644 107.947 332.817 113.065 329.386 117.44C325.955 121.815 321.068 125.257 315.327 127.342C309.587 129.426 303.242 130.063 297.074 129.173C290.906 128.283 285.184 125.906 280.611 122.333C276.038 118.761 272.815 114.149 271.337 109.066C269.859 103.982 270.191 98.6488 272.293 93.721C274.394 88.7932 278.173 84.4864 283.165 81.3302C288.157 78.174 294.144 76.3062 300.389 75.9565V102.715H334.64Z" fill="#68E1FD"/>
<path d="M338.118 99.6011H303.867V72.8136C304.557 72.7674 305.288 72.7501 306.006 72.7501C310.224 72.7501 314.401 73.4447 318.298 74.7943C322.195 76.1438 325.735 78.1218 328.717 80.6153C331.7 83.1088 334.065 86.0689 335.678 89.3265C337.291 92.5842 338.12 96.0755 338.118 99.6011V99.6011Z" fill="#68E1FD"/>
<path d="M338.118 99.6011H303.867V72.8136C304.557 72.7674 305.288 72.7501 306.006 72.7501C310.224 72.7501 314.401 73.4447 318.298 74.7943C322.195 76.1438 325.735 78.1218 328.717 80.6153C331.7 83.1088 334.065 86.0689 335.678 89.3265C337.291 92.5842 338.12 96.0755 338.118 99.6011V99.6011Z" fill="url(#paint9_linear)"/>
<path d="M378.255 147.444H342.037C337.163 147.444 333.212 150.746 333.212 154.82V171.671C333.212 175.744 337.163 179.047 342.037 179.047H378.255C383.129 179.047 387.08 175.744 387.08 171.671V154.82C387.08 150.746 383.129 147.444 378.255 147.444Z" fill="#68E1FD"/>
<path d="M351.221 156.688V170.702L369.775 162.801L351.221 156.688Z" fill="url(#paint10_linear)"/>
<path d="M362.061 109.094L361.522 115.916L354.167 119.491L362.192 122.848L362.999 130.224L370.354 123.407L378.517 124.076L374.632 119.042L376.109 111.775L368.484 114.347L362.061 109.094Z" fill="#68E1FD"/>
<path d="M91.6933 61.6833L91.162 68.5057L83.7998 72.0812L91.8313 75.4375L92.6317 82.8135L99.9871 75.9969L108.15 76.6659L104.272 71.6371L105.742 64.365L98.1172 66.937L91.6933 61.6833Z" fill="#68E1FD"/>
<path d="M15.7114 98.9149H8.21802V119.042H15.7114V98.9149Z" fill="#68E1FD"/>
<path d="M26.2751 106.931H18.7817V119.042H26.2751V106.931Z" fill="#68E1FD"/>
<path d="M36.8456 102.473H29.3523V119.042H36.8456V102.473Z" fill="#68E1FD"/>
<path d="M214.506 96.683L210.221 103.165" stroke="white" stroke-width="4.13" stroke-miterlimit="10" stroke-linecap="round"/>
<path d="M223.468 102.721L215.575 107.415" stroke="white" stroke-width="4.13" stroke-miterlimit="10" stroke-linecap="round"/>
<path d="M229.355 110.991L219.453 113.228" stroke="white" stroke-width="4.13" stroke-miterlimit="10" stroke-linecap="round"/>
<path d="M179.454 224.069C177.655 224.411 175.835 224.671 174.003 224.848H173.968C170.07 225.211 165.233 225.211 163.515 223.302C163.472 223.264 163.435 223.221 163.404 223.176C163.348 223.114 163.3 223.049 163.259 222.979C163.204 222.899 163.142 222.818 163.087 222.726C163.032 222.633 162.963 222.518 162.901 222.409L162.839 222.305C161.224 219.248 161.369 213.948 160.996 210.973C160.472 206.74 160.141 202.478 159.575 198.245C158.402 189.67 156.056 180.869 149.784 174.024C148.88 173.043 145.078 169.41 142.98 167.582L145.927 168.626C145.927 168.626 169.111 176.971 171.25 184.727C173.389 192.484 179.454 224.069 179.454 224.069Z" fill="url(#paint11_linear)"/>
<path d="M244.907 142.173C243.285 149.773 238.413 156.621 231.197 161.44C227.243 164.064 222.489 166.158 220.095 169.872C218.59 172.178 218.204 174.895 217.9 177.536C217.9 177.536 218.652 164.923 224.007 160.748C229.361 156.573 243.327 144.162 244.382 138.499C244.679 139.709 244.854 140.938 244.907 142.173V142.173Z" fill="url(#paint12_linear)"/>
</g>
<defs>
<linearGradient id="paint0_linear" x1="76.1889" y1="118.494" x2="99.5866" y2="118.494" gradientUnits="userSpaceOnUse">
<stop stop-color="#ECC4D7"/>
<stop offset="0.42" stop-color="#EFD4D1"/>
<stop offset="1" stop-color="#F2EAC9"/>
</linearGradient>
<linearGradient id="paint1_linear" x1="151.854" y1="307.102" x2="185.67" y2="201.068" gradientUnits="userSpaceOnUse">
<stop offset="0.02" stop-color="white" stop-opacity="0"/>
<stop offset="0.58" stop-color="white" stop-opacity="0.39"/>
<stop offset="0.68" stop-color="white" stop-opacity="0.68"/>
<stop offset="1" stop-color="white"/>
</linearGradient>
<linearGradient id="paint2_linear" x1="191.694" y1="108.13" x2="186.468" y2="298.773" gradientUnits="userSpaceOnUse">
<stop stop-opacity="0"/>
<stop offset="0.99"/>
</linearGradient>
<linearGradient id="paint3_linear" x1="5853.3" y1="-8587.37" x2="6329.68" y2="-8413.44" gradientUnits="userSpaceOnUse">
<stop stop-color="#ECC4D7"/>
<stop offset="0.42" stop-color="#EFD4D1"/>
<stop offset="1" stop-color="#F2EAC9"/>
</linearGradient>
<linearGradient id="paint4_linear" x1="4387.33" y1="3016.56" x2="3485.78" y2="3549.15" gradientUnits="userSpaceOnUse">
<stop stop-color="#ECC4D7"/>
<stop offset="0.42" stop-color="#EFD4D1"/>
<stop offset="1" stop-color="#F2EAC9"/>
</linearGradient>
<linearGradient id="paint5_linear" x1="19016.1" y1="33765.1" x2="20139.6" y2="33084.4" gradientUnits="userSpaceOnUse">
<stop stop-color="#ECC4D7"/>
<stop offset="0.42" stop-color="#EFD4D1"/>
<stop offset="1" stop-color="#F2EAC9"/>
</linearGradient>
<linearGradient id="paint6_linear" x1="4365.66" y1="2353.46" x2="4693.46" y2="2353.46" gradientUnits="userSpaceOnUse">
<stop stop-color="#ECC4D7"/>
<stop offset="0.42" stop-color="#EFD4D1"/>
<stop offset="1" stop-color="#F2EAC9"/>
</linearGradient>
<linearGradient id="paint7_linear" x1="2790.91" y1="3582.96" x2="2605.61" y2="3646.71" gradientUnits="userSpaceOnUse">
<stop stop-opacity="0"/>
<stop offset="0.99"/>
</linearGradient>
<linearGradient id="paint8_linear" x1="59898.8" y1="36323.9" x2="65466.4" y2="4517.29" gradientUnits="userSpaceOnUse">
<stop stop-opacity="0"/>
<stop offset="0.99"/>
</linearGradient>
<linearGradient id="paint9_linear" x1="17458.3" y1="3745.42" x2="12057.3" y2="6417.74" gradientUnits="userSpaceOnUse">
<stop stop-opacity="0"/>
<stop offset="0.99"/>
</linearGradient>
<linearGradient id="paint10_linear" x1="10248.8" y1="3652.13" x2="9585.92" y2="5854.79" gradientUnits="userSpaceOnUse">
<stop stop-opacity="0"/>
<stop offset="0.99"/>
</linearGradient>
<linearGradient id="paint11_linear" x1="10571.7" y1="19001.8" x2="-829.291" y2="20738.3" gradientUnits="userSpaceOnUse">
<stop stop-opacity="0"/>
<stop offset="0.99"/>
</linearGradient>
<linearGradient id="paint12_linear" x1="9353.08" y1="10097.1" x2="9191.33" y2="13513.9" gradientUnits="userSpaceOnUse">
<stop stop-opacity="0"/>
<stop offset="0.99"/>
</linearGradient>
<clipPath id="clip0">
<rect width="387.08" height="333.099" fill="white"/>
</clipPath>
</defs>
</svg>
