<svg width="424" height="357" viewBox="0 0 424 357" fill="none" xmlns="http://www.w3.org/2000/svg">
<g clip-path="url(#clip0)">
<path opacity="0.18" d="M423.897 252.649C423.479 263.673 421.38 274.465 417.729 284.355C411.777 300.229 402.514 313.197 391.55 323.225C385.434 328.78 378.901 333.46 372.059 337.187C368.292 339.255 364.449 341.061 360.545 342.598C336.9 351.888 311.949 352.343 287.338 352.73L114.124 355.435L91.3432 355.787C84.0955 355.904 76.7091 355.973 69.3997 355.435C55.4544 354.427 41.7661 351.232 29.7638 342.032C23.5811 337.267 18.1815 330.869 13.891 323.225C5.75405 308.808 1.35406 290.422 1.14331 272.098V270.172C1.23069 252.29 5.34284 234.656 13.891 220.887C14.4358 220.018 14.991 219.155 15.5718 218.32C16.7797 216.567 18.1008 214.869 19.4886 213.171C28.3246 202.467 39.9928 192.874 45.282 179.084C54.5857 154.818 42.9844 144.914 41.4577 121.11C38.8876 81.0808 69.0708 35.0813 93.5894 16.716C119.953 -3.07793 153.159 -5.4521 180.947 10.4286C210.349 27.241 237.787 63.8543 268.803 53.5294C278.775 50.2097 287.934 42.0381 298.21 41.7966C317.197 41.3066 330.377 67.2361 336.288 91.4884C342.199 115.741 345.407 143.113 359.46 160.277C369.545 172.59 383.449 177.221 395.662 185.399C399.372 187.814 402.884 190.74 406.143 194.13C413.339 201.763 418.284 212.122 421.132 223.634C423.392 232.99 424.33 242.83 423.897 252.649Z" fill="#68E1FD"/>
<path opacity="0.18" d="M391.658 323.452C382.134 332.029 371.673 338.562 360.652 342.818C338.55 351.508 315.311 352.481 292.288 352.867L287.461 352.95L223.867 353.951L191.566 354.462L119.67 355.586L114.217 355.669L91.4304 356.028C84.1827 356.146 76.8014 356.208 69.4869 355.669C55.5262 354.689 41.8379 351.494 29.8253 342.322C23.6654 337.537 18.2905 331.128 14.0244 323.48L391.658 323.452Z" fill="#68E1FD"/>
<path opacity="0.05" d="M321.566 338.954C321.715 341.832 320.194 344.613 320.626 347.436C321.263 351.577 324.784 350.887 327.94 350.576C335.609 349.734 345.417 348.161 352.885 345.572C359.799 343.171 364.831 340.852 371.421 337.981C371.935 337.753 371.776 335.793 371.801 335.068C371.842 334.109 370.897 333.75 370.182 333.688C363.664 333.405 357.075 333.688 350.68 331.962C347.807 331.176 344.99 329.975 342.076 329.526C338.478 328.981 334.879 329.574 331.281 329.209C328.675 328.939 322.327 325.109 319.906 326.683C316.277 329.091 321.386 335.475 321.566 338.954Z" fill="#000405"/>
<path opacity="0.05" d="M170.553 341.549C178.083 344.385 184.174 350.39 190.805 355.042C166.838 355.41 142.873 355.782 118.91 356.16C120.92 353.585 123.165 351.363 125.592 349.548C133.472 343.626 142.729 342.26 151.704 341.004C157.975 340.12 164.457 339.258 170.553 341.549Z" fill="#000405"/>
<path opacity="0.05" d="M292.781 350.052C292.672 350.973 292.377 351.838 291.928 352.55C291.769 352.827 291.635 353.128 291.527 353.447L286.7 353.53L223.096 354.51C224.249 353.308 225.294 351.93 226.211 350.403C227.537 348.195 228.596 345.69 230.138 343.771C234.692 338.098 241.904 339.154 247.805 341.701C249.599 342.487 251.403 343.385 253.294 343.35C256.646 343.295 259.524 340.369 262.547 338.353C272.041 331.99 284.608 335.399 291.517 346.214C292.195 347.332 292.869 348.63 292.781 350.052Z" fill="#000405"/>
<path d="M258.856 253.29L247.101 330.941L239.2 329.726L238.291 329.581C238.291 329.581 240.552 306.571 241.529 273.754C242.171 252.014 244.942 234.263 246.268 219.507C246.68 215.442 247.368 211.436 248.324 207.539C249.928 201.01 252.369 194.902 255.474 195.531C262.331 196.911 271.362 204.868 272.555 209.851C274.632 218.548 258.856 253.29 258.856 253.29Z" fill="#25233A"/>
<path opacity="0.24" d="M250.637 207.74C250.637 207.74 245.368 262.546 245.199 279.641C245.029 296.736 239.791 329.581 239.791 329.581L239.185 329.726L238.275 329.581C238.275 329.581 240.537 306.571 241.513 273.754C242.156 252.014 244.926 234.263 246.252 219.507C246.664 215.442 247.352 211.436 248.309 207.539C249.088 207.485 249.869 207.552 250.637 207.74Z" fill="white"/>
<path d="M285.806 330.817H277.068V330.748C276.832 329.167 272.442 299.973 266.238 278.827C261.611 263.056 259.375 230.936 258.527 214.496C258.188 208.285 258.054 204.31 258.054 204.31C258.054 204.31 275.798 197.277 278.101 200.396C280.404 203.516 283.02 217.65 283.02 217.65C283.02 217.65 276.945 273.623 280.81 277.419C284.675 281.215 285.806 330.817 285.806 330.817Z" fill="#3F3D56"/>
<path d="M147.535 107.107C147.535 107.107 134.613 112.455 129.38 162.534C127.489 180.588 139.517 212.481 139.517 212.481L147.535 107.107Z" fill="#68E1FD"/>
<path d="M147.535 107.107C147.535 107.107 134.613 112.455 129.38 162.534C127.489 180.588 139.517 212.481 139.517 212.481L147.535 107.107Z" fill="url(#paint0_linear)"/>
<path d="M138.098 206.228C137.306 206.054 136.494 206.137 135.73 206.468C134.966 206.8 134.271 207.371 133.705 208.135C133.138 208.899 132.715 209.833 132.47 210.86C132.226 211.887 132.168 212.977 132.3 214.041C133.287 221.867 135.168 232.73 138.468 238.887C144.04 249.191 151.648 263.408 151.648 263.408L159.512 335.875L169.212 334.116L169.124 264.671L158.176 210.68L138.098 206.228Z" fill="#25233A"/>
<path d="M158.15 210.68L156.891 271L136.099 335.924L129.134 331.969L127.108 330.803L138.622 269.931C138.622 269.931 134.14 253.367 130.84 241.289C127.674 229.701 131.981 206.739 132.341 204.889V204.765L158.15 210.68Z" fill="#3F3D56"/>
<path d="M244.248 172.099L218.593 189.174L213.802 180.982L212.574 178.87L234.492 162.879C234.492 162.879 242.022 140.4 243.657 130.068C243.97 128.15 244.284 126.617 244.577 125.299C245.147 122.904 250.591 114.443 252.421 113.939C254.251 113.435 252.189 120.986 253.408 122.911C254.745 125.552 255.429 128.691 255.361 131.883C255.572 138.302 244.248 172.099 244.248 172.099Z" fill="#68E1FD"/>
<path d="M278.096 192.093C278.096 192.093 265.353 212.653 250.663 207.76C249.651 207.418 248.661 206.97 247.702 206.421C246.454 205.699 245.47 204.342 244.965 202.647C244.46 200.953 244.476 199.059 245.009 197.38V197.339C246.427 193.018 246.468 186.772 246.34 181.009C246.042 167.751 243.544 153.403 243.359 147.433C243.235 143.616 243.693 138.212 244.53 132.815C246.006 123.222 248.643 113.663 251.372 113.111C259.411 111.448 262.166 114.388 262.166 114.388L275.891 125.092C282.722 134.658 279.401 149.676 278.096 192.093Z" fill="#68E1FD"/>
<path d="M257.952 137.943L261.462 145.535L251.742 158.738L249.743 161.457L260.306 113.387L260.347 108.577L261.688 110.419V110.426L263.446 112.842L264.12 132.746L257.952 137.943Z" fill="#68E1FD"/>
<path d="M276.79 149.283L275.3 201.107C275.3 201.107 254.328 214.489 251.557 199.451C249.414 187.828 254.898 174.57 254.898 174.57L276.79 149.283Z" fill="url(#paint1_linear)"/>
<path d="M256.137 178.021L249.83 212.122L288.803 222.861L294.406 189.499L256.137 178.021Z" fill="white"/>
<path d="M260.619 100.971C260.619 101.123 260.481 108.846 260.28 113.76C260.136 117.563 258.81 120.24 256.785 122.891C255.608 124.541 254.193 125.851 252.626 126.742C252.079 127.012 251.474 126.98 250.944 126.653C250.414 126.325 250.003 125.73 249.799 124.996C249.645 124.419 249.625 123.793 249.743 123.201C249.943 122.18 250.144 120.993 250.298 119.75C250.627 117.19 250.771 114.415 250.252 112.455C250.238 112.383 250.22 112.311 250.2 112.241C249.892 111.227 250.2 110.123 250.899 109.011C251.881 107.445 253.598 105.857 255.31 104.519C257.028 103.201 258.801 102.017 260.619 100.971Z" fill="url(#paint2_linear)"/>
<path d="M251.419 119.226C251.066 119.462 250.693 119.638 250.308 119.75C250.637 117.19 250.781 114.415 250.262 112.455L250.91 109.005L251.398 106.437L255.32 104.512L259.293 102.565C258.337 112.062 254.554 117.231 251.419 119.226Z" fill="url(#paint3_linear)"/>
<path d="M250.339 73.9854C248.857 74.1077 247.407 74.6208 246.072 75.4954C244.737 76.3701 243.544 77.5892 242.56 79.0831C241.577 80.577 240.822 82.3165 240.339 84.2021C239.856 86.0878 239.654 88.0828 239.745 90.0732C239.754 90.4642 239.783 90.854 239.833 91.2395C240.191 97.4104 241.379 103.443 243.338 109.046C247.034 117.466 256.317 110.495 257.782 107.017C259.247 103.538 264.773 87.8025 262.439 83.3372C260.897 80.2314 256.363 73.6127 250.339 73.9854Z" fill="url(#paint4_linear)"/>
<path d="M240.511 68.0503L242.423 69.3616C241.283 69.3307 240.155 69.6637 239.13 70.3332C238.105 71.0028 237.213 71.9897 236.527 73.2127C234.78 75.565 233.793 78.7456 233.777 82.0675L237.021 79.997C237.021 79.997 236.779 85.3734 242.927 85.7668C249.074 86.1602 255.582 86.457 255.582 86.457L253.495 82.5852C253.495 82.5852 257.319 84.6557 257.988 86.526C258.6 89.5641 259.04 92.6604 259.303 95.788C259.303 95.788 260.82 90.4806 261.452 91.647C262.084 92.8134 260.794 97.617 259.997 98.6729C259.201 99.7289 259.334 102.89 259.262 103.152C259.19 103.414 263.071 99.0732 263.241 97.5824C263.41 96.0917 267.255 81.0185 264.731 77.8713L266.273 77.7126C265.369 76.8921 264.337 76.3587 263.256 76.1528C263.256 76.1528 253.13 58.4294 240.511 68.0503Z" fill="#3F3D56"/>
<path d="M200.551 185.937C202.233 183.965 204.072 182.25 206.036 180.823C207.576 180.094 209.182 179.648 210.811 179.498C210.811 179.498 211.078 182.514 209.783 182.714C208.488 182.914 207.408 185.558 207.408 185.558C207.408 185.558 215.72 190.127 216.866 189.699C218.012 189.271 217.786 191.493 215.684 191.348C213.582 191.203 213.068 195.151 211.613 195.096C210.158 195.041 207.855 196.248 205.717 196.352C203.556 196.111 201.433 195.446 199.415 194.378L200.551 185.937Z" fill="url(#paint5_linear)"/>
<path d="M168.384 153.907L161.414 206.511C161.414 206.511 159.008 216.581 146.559 215.076C142.007 214.57 137.723 211.98 134.423 207.74L134.222 207.484L134.083 207.291C131.699 204.124 129.831 200.326 128.599 196.138C128.599 196.138 136.597 121.925 144.996 109.046C145.834 107.762 146.672 107.079 147.515 107.141C149.815 107.549 152.012 108.674 153.93 110.426C159.319 114.878 163.582 121.41 166.161 129.168C168.74 136.926 169.514 145.548 168.384 153.907Z" fill="#68E1FD"/>
<path d="M155.282 152.147L146.543 215.069C146.543 215.069 159.934 217.54 161.399 206.511L165.511 174.508L155.282 152.147Z" fill="url(#paint6_linear)"/>
<path d="M147.535 107.107C147.535 107.107 148.867 93.5725 149.401 84.7729C149.936 75.9733 152.074 64.1853 163.074 65.6968C174.074 67.2082 174.11 89.5351 171.072 98.8799C168.034 108.225 163.984 107.956 163.984 107.956C163.984 107.956 158.505 106.354 158.71 115.202L147.535 107.107Z" fill="url(#paint7_linear)"/>
<path d="M151.596 63.8265C149.995 65.8929 148.839 68.5015 148.25 71.3769C147.756 73.7075 147.422 76.0939 147.253 78.5063L148.373 76.8568C148.318 80.9864 148.089 85.1086 147.69 89.2038C147.272 93.0188 147.1 96.875 147.176 100.73L149.232 100.592L151.802 104.829L154.639 102.248L156.788 100.764L158.69 94.456C158.217 93.9991 157.87 93.3455 157.703 92.5966C157.536 91.8477 157.557 91.0457 157.764 90.315C158.463 87.7407 160.201 87.1471 160.607 88.6655C160.917 90.5573 161.089 92.485 161.121 94.4215L164.154 82.8888C164.154 82.8888 166.055 79.3069 167.721 81.7708C168.719 83.2625 169.981 84.3924 171.391 85.0559L170.363 81.2462L173.113 82.1918L172.897 77.7885L174.953 79.7141C174.953 79.7141 175.853 72.5847 174.11 69.4237C172.368 66.2627 165.439 53.5982 151.596 63.8265Z" fill="#3F3D56"/>
<path d="M200.782 184.508L199.389 194.392L199.014 197.049L173.925 194.537C166.981 193.736 160.165 187.359 159.301 178.035L150.619 136.88C150.228 135.193 150.162 133.4 150.427 131.669C150.692 129.938 151.28 128.325 152.136 126.982C152.991 125.639 154.086 124.609 155.319 123.989C156.551 123.369 157.881 123.178 159.183 123.436C160.836 123.768 162.386 124.715 163.658 126.171C164.93 127.626 165.873 129.531 166.379 131.669L171.843 168.504C172.161 170.672 172.937 172.672 174.079 174.264C175.222 175.855 176.681 176.97 178.284 177.476L200.782 184.508Z" fill="#68E1FD"/>
<path d="M213.803 180.975L210.307 182.438C210.307 182.438 205.938 182.963 204.484 184.633C203.029 186.303 203.841 187.055 203.841 187.055C203.841 187.055 208.467 186.144 209.464 186.662C210.462 187.18 215.34 189.782 216.882 189.747C218.424 189.713 218.593 189.174 218.593 189.174L213.803 180.975Z" fill="url(#paint8_linear)"/>
<path d="M203.26 193.246C203.517 192.938 203.825 192.716 204.158 192.596C204.491 192.476 204.84 192.462 205.177 192.556C205.253 192.573 205.323 192.621 205.378 192.694C205.411 192.778 205.428 192.872 205.428 192.966C205.428 193.061 205.411 193.155 205.378 193.239C205.146 194.291 204.777 195.279 204.288 196.159C204.833 195.91 205.085 195.096 205.429 194.481C205.689 194.02 206.022 193.643 206.405 193.378C206.787 193.113 207.209 192.966 207.639 192.949C207.743 192.936 207.847 192.965 207.938 193.032C208.148 193.225 208.056 193.667 207.938 193.978C207.722 194.557 207.511 195.144 207.295 195.731C207.841 194.674 208.472 193.702 209.176 192.832C209.345 192.59 209.557 192.412 209.793 192.314C209.912 192.265 210.039 192.275 210.153 192.342C210.266 192.41 210.357 192.53 210.41 192.68C210.456 192.864 210.456 193.062 210.41 193.246C210.262 194.044 210 194.796 209.639 195.461C210.073 194.499 210.618 193.635 211.253 192.901C211.298 192.83 211.355 192.774 211.42 192.739C211.484 192.704 211.554 192.691 211.623 192.701C211.701 192.736 211.766 192.81 211.803 192.908C212.019 193.391 211.803 194.005 211.577 194.488C211.161 195.379 210.631 196.331 209.855 196.49C209.68 196.503 209.508 196.545 209.341 196.614C209.222 196.696 209.11 196.795 209.007 196.911C208.74 197.157 208.425 197.294 208.101 197.304C207.776 197.314 207.457 197.196 207.182 196.966C206.807 197.286 206.371 197.451 205.927 197.441C205.483 197.431 205.051 197.247 204.684 196.911C204.6 196.812 204.494 196.752 204.383 196.741C204.272 196.73 204.161 196.768 204.067 196.849C203.733 197.002 203.371 197.011 203.032 196.877C202.693 196.742 202.394 196.469 202.175 196.096C201.713 195.213 202.751 193.84 203.26 193.246Z" fill="url(#paint9_linear)"/>
<path d="M278.579 210.424L269.995 206.442L269.702 206.304L275.958 179.305C275.958 179.305 267.733 148.938 266.366 139.641C265.924 136.55 265.903 133.377 266.304 130.276C266.505 128.665 267.065 127.173 267.909 125.997C268.753 124.82 269.842 124.014 271.033 123.684C272.366 123.29 273.759 123.534 274.971 124.375C276.041 125.119 277.072 125.963 278.055 126.901C278.843 127.67 279.402 128.79 279.633 130.062C281.175 138.564 287.379 173.252 287.61 176.544C287.862 180.319 278.579 210.424 278.579 210.424Z" fill="#68E1FD"/>
<path d="M267.461 208.734C267.039 209.272 266.638 210.238 267.086 210.749C267.194 210.873 267.343 210.942 267.43 211.094C267.646 211.46 267.379 211.97 267.132 212.295L265.076 214.98C264.315 215.966 263.488 217.202 263.662 218.603C263.747 219.101 263.931 219.559 264.193 219.929C264.455 220.3 264.787 220.569 265.153 220.708C265.891 220.966 266.666 220.954 267.399 220.673C267.387 220.964 267.438 221.253 267.547 221.504C267.655 221.756 267.817 221.959 268.011 222.088C268.405 222.335 268.831 222.475 269.265 222.502C270.518 222.802 271.804 222.755 273.043 222.364C273.136 222.551 273.228 222.73 273.326 222.91C274.95 222.523 275.834 220.19 276.41 218.12C276.986 216.049 277.572 213.744 278.065 211.515C278.157 211.215 278.173 210.883 278.111 210.569C278.035 210.385 277.93 210.224 277.804 210.097C277.679 209.97 277.535 209.879 277.381 209.831C275.418 208.83 273.459 207.809 271.491 206.822C269.671 205.911 268.844 207.001 267.461 208.734Z" fill="url(#paint10_linear)"/>
<path d="M257.952 137.943L261.462 145.535L251.742 158.738L249.743 161.457L260.306 113.387L260.347 108.577L261.688 110.419V110.426L263.446 112.842L264.12 132.746L257.952 137.943Z" fill="#68E1FD"/>
<path d="M250.308 119.75L248.997 128.032L249.743 161.45L259.319 117.88L255.207 121.372C254.986 121.559 254.759 121.731 254.523 121.89C254.166 122.131 253.777 122.275 253.378 122.315C252.98 122.354 252.579 122.287 252.2 122.119C251.82 121.95 251.469 121.683 251.167 121.332C250.864 120.982 250.616 120.554 250.437 120.075C250.395 119.964 250.359 119.854 250.323 119.737L250.308 119.75Z" fill="white"/>
<path d="M250.37 113.077L246.098 123.822L247.517 128.308L245.199 135.038L249.727 161.45C249.727 161.45 248.488 129.164 250.293 119.737C250.308 119.75 250.904 115.257 250.37 113.077Z" fill="#68E1FD"/>
<path d="M257.952 137.943L261.462 145.535L251.742 158.738L249.743 161.457L260.306 113.387L260.347 108.577L261.688 110.419V110.426L263.446 112.842L264.12 132.746L257.952 137.943Z" fill="url(#paint11_linear)"/>
<path d="M250.37 113.077L246.098 123.822L247.517 128.308L245.199 135.038L249.727 161.45C249.727 161.45 248.488 129.164 250.293 119.737C250.308 119.75 250.904 115.257 250.37 113.077Z" fill="url(#paint12_linear)"/>
<path d="M147.186 104.843L159.805 113.27L163.218 122.152L145.006 108.998L147.186 104.843Z" fill="#68E1FD"/>
<path d="M147.186 104.843L159.805 113.27L163.218 122.152L145.006 108.998L147.186 104.843Z" fill="url(#paint13_linear)"/>
<path d="M113.456 221.688V356.27H102.42V295.218H2.87543C1.40127 287.941 0.612097 280.445 0.526367 272.905L0.526367 271C0.61375 253.125 4.72075 235.443 13.2791 221.715L113.456 221.688Z" fill="#68E1FD"/>
<path d="M125.232 213.951V221.667H13.2791C13.8188 220.798 14.3791 219.935 14.9548 219.1C16.1678 217.347 17.4837 215.649 18.8767 213.951H125.232Z" fill="#68E1FD"/>
<path d="M64.3417 169.546C63.0772 167.917 61.566 166.675 60.2296 165.184C59.7567 164.66 59.2581 163.956 59.3506 163.114C59.4099 162.787 59.5387 162.492 59.7213 162.262C59.9039 162.033 60.1323 161.881 60.3786 161.823C60.8785 161.733 61.3866 161.775 61.8744 161.947L58.9959 157.599C58.7286 157.192 58.4408 156.633 58.6361 156.157C58.8314 155.68 59.3814 155.708 59.7618 155.95C60.1066 156.268 60.5068 156.46 60.9235 156.509C59.8955 154.569 58.5898 152.989 57.495 151.146C56.4001 149.303 55.5212 147.005 55.6856 144.686C55.69 144.349 55.7787 144.023 55.9375 143.761C56.2665 143.32 56.8216 143.506 57.2483 143.761C60.2933 145.541 62.7359 148.778 64.1001 152.844C63.6254 150.865 63.4336 148.783 63.5347 146.708C63.5246 146.467 63.5544 146.225 63.622 146.001C63.6895 145.777 63.7931 145.575 63.9253 145.411C64.4394 144.935 65.1179 145.756 65.416 146.522C67.4412 151.816 66.0277 158.255 66.8552 164.114C66.9632 162.485 67.5293 160.972 68.4384 159.884C68.69 162.9 68.6034 165.95 68.1814 168.932C68.8137 169.304 68.7623 170.519 68.6029 171.43C68.3973 172.81 68.1403 174.191 67.8319 175.571C66.701 175.447 66.6805 174.619 66.3258 173.397C65.8785 171.937 65.2017 170.623 64.3417 169.546Z" fill="#68E1FD"/>
<path d="M73.4038 151.505C74.4678 149.883 75.7426 148.344 77.3206 147.902C77.7987 149.138 77.3206 150.663 76.6575 151.746C75.9945 152.83 75.172 153.817 74.8379 155.101C76.2147 152.894 78.0774 151.33 80.158 150.635C80.8966 150.297 81.7043 150.359 82.4094 150.808C82.5103 150.879 82.5996 150.977 82.6719 151.096C82.7443 151.214 82.7984 151.351 82.8309 151.498C82.9543 152.257 82.2346 152.713 81.6692 152.878C77.7014 154.281 74.2189 157.489 71.8155 161.954C74.1608 160.049 76.9101 159.241 79.6337 159.656C80.1066 159.732 80.6618 159.925 80.8365 160.511C81.1089 161.381 80.3739 162.209 79.7057 162.506C77.1356 163.652 73.9178 162.43 71.8412 164.79C72.9663 164.625 74.0959 165.045 74.9973 165.964C75.722 166.702 76.2566 168.214 75.6192 169.083C75.4035 169.308 75.1535 169.467 74.8871 169.548C74.6206 169.629 74.3441 169.631 74.0772 169.553C72.5917 169.38 70.7618 169.049 69.9085 170.691C69.4407 171.595 69.4767 172.762 69.3019 173.866C69.1632 174.743 68.6234 176.295 67.9141 175.44C67.4412 174.867 67.6262 172.865 67.6262 172.106C67.6614 164.543 69.7065 157.244 73.3935 151.525L73.4038 151.505Z" fill="#68E1FD"/>
<path d="M64.3417 169.546C63.0772 167.917 61.566 166.675 60.2296 165.184C59.7567 164.66 59.2581 163.956 59.3506 163.114C59.4099 162.787 59.5387 162.492 59.7213 162.262C59.9039 162.033 60.1323 161.881 60.3786 161.823C60.8785 161.733 61.3866 161.775 61.8744 161.947L58.9959 157.599C58.7286 157.192 58.4408 156.633 58.6361 156.157C58.8314 155.68 59.3814 155.708 59.7618 155.95C60.1066 156.268 60.5068 156.46 60.9235 156.509C59.8955 154.569 58.5898 152.989 57.495 151.146C56.4001 149.303 55.5212 147.005 55.6856 144.686C55.69 144.349 55.7787 144.023 55.9375 143.761C56.2665 143.32 56.8216 143.506 57.2483 143.761C60.2933 145.541 62.7359 148.778 64.1001 152.844C63.6254 150.865 63.4336 148.783 63.5347 146.708C63.5246 146.467 63.5544 146.225 63.622 146.001C63.6895 145.777 63.7931 145.575 63.9253 145.411C64.4394 144.935 65.1179 145.756 65.416 146.522C67.4412 151.816 66.0277 158.255 66.8552 164.114C66.9632 162.485 67.5293 160.972 68.4384 159.884C68.69 162.9 68.6034 165.95 68.1814 168.932C68.8137 169.304 68.7623 170.519 68.6029 171.43C68.3973 172.81 68.1403 174.191 67.8319 175.571C66.701 175.447 66.6805 174.619 66.3258 173.397C65.8785 171.937 65.2017 170.623 64.3417 169.546Z" fill="url(#paint14_linear)"/>
<path d="M73.4038 151.505C74.4678 149.883 75.7426 148.344 77.3206 147.902C77.7987 149.138 77.3206 150.663 76.6575 151.746C75.9945 152.83 75.172 153.817 74.8379 155.101C76.2147 152.894 78.0774 151.33 80.158 150.635C80.8966 150.297 81.7043 150.359 82.4094 150.808C82.5103 150.879 82.5996 150.977 82.6719 151.096C82.7443 151.214 82.7984 151.351 82.8309 151.498C82.9543 152.257 82.2346 152.713 81.6692 152.878C77.7014 154.281 74.2189 157.489 71.8155 161.954C74.1608 160.049 76.9101 159.241 79.6337 159.656C80.1066 159.732 80.6618 159.925 80.8365 160.511C81.1089 161.381 80.3739 162.209 79.7057 162.506C77.1356 163.652 73.9178 162.43 71.8412 164.79C72.9663 164.625 74.0959 165.045 74.9973 165.964C75.722 166.702 76.2566 168.214 75.6192 169.083C75.4035 169.308 75.1535 169.467 74.8871 169.548C74.6206 169.629 74.3441 169.631 74.0772 169.553C72.5917 169.38 70.7618 169.049 69.9085 170.691C69.4407 171.595 69.4767 172.762 69.3019 173.866C69.1632 174.743 68.6234 176.295 67.9141 175.44C67.4412 174.867 67.6262 172.865 67.6262 172.106C67.6614 164.543 69.7065 157.244 73.3935 151.525L73.4038 151.505Z" fill="url(#paint15_linear)"/>
<path d="M74.4831 213.896L68.6027 213.937H62.7841C49.985 203.75 64.7785 183.032 64.7785 183.032C64.7785 183.032 65.3644 179.802 64.5985 177.766C64.4223 177.275 64.1461 176.861 63.8018 176.572C61.9154 175.053 64.5471 174.453 64.5471 174.453H72.4424C72.4424 174.453 75.1462 174.757 73.1158 176.668C71.0854 178.58 72.2163 183.032 72.2163 183.032C88.012 206.615 74.4831 213.896 74.4831 213.896Z" fill="white"/>
<path opacity="0.51" d="M69.0294 213.316C68.8994 213.538 68.7568 213.745 68.6027 213.937H62.7841C49.985 203.75 64.7784 183.032 64.7784 183.032C64.7784 183.032 65.3644 179.802 64.5985 177.766C67.1686 177.503 68.4074 181.955 68.063 184.785C67.8009 186.966 67.549 189.153 67.2663 191.334C66.9369 193.374 66.8501 195.47 67.0093 197.546C67.328 200.306 68.4999 202.743 69.2658 205.338C70.0317 207.933 70.3093 211.108 69.0294 213.316Z" fill="url(#paint16_linear)"/>
<path d="M113.456 221.688L55.9478 243.628C45.9735 247.432 36.6988 253.984 28.7145 262.866C20.7301 271.749 14.2112 282.766 9.57308 295.218H2.89085C1.41164 287.942 0.617287 280.446 0.526367 272.905L0.526367 271C0.61375 253.125 4.72075 235.443 13.2791 221.715L113.456 221.688Z" fill="url(#paint17_linear)"/>
<path opacity="0.61" d="M107.694 295.218H102.42V356.16H107.694V295.218Z" fill="url(#paint18_linear)"/>
<path d="M423.275 253.449C422.855 264.473 420.755 275.264 417.107 285.156C415.755 288.759 414.227 292.238 412.532 295.57C406.837 306.806 399.389 316.275 390.943 324.033C384.826 329.583 378.293 334.26 371.452 337.988L357.825 334.613L331.708 328.146C330.428 327.828 329.189 327.628 328.017 327.456C323.201 326.724 319.454 326.365 318.04 319.802C316.287 311.72 318.04 299.352 318.04 290.877C318.04 276.149 319.187 258.612 328.737 251.379C336.663 245.388 346.728 249.619 355.574 246.844C356.426 246.658 357.229 246.183 357.907 245.464C358.936 244.187 359.095 242.117 359.121 240.24C359.342 225.988 355.795 210.003 362.138 198.574C366.99 189.837 375.867 187.428 383.948 186.421C386.435 186.103 388.933 185.958 391.432 185.986C392.645 185.986 393.856 186.055 395.066 186.193C403.439 187.062 411.417 190.672 415.673 199.927C417.95 204.869 418.757 210.735 419.518 216.457C419.862 219.1 420.206 221.764 420.546 224.428C421.677 233.966 422.705 243.732 423.275 253.449Z" fill="#3F3D56"/>
<path d="M423.275 253.449C422.855 264.473 420.755 275.264 417.107 285.155C415.755 288.759 414.227 292.238 412.532 295.57C409.402 297.358 405.634 297.337 402.144 297.406C396.65 297.518 391.169 298.15 385.741 299.297C383.305 299.808 380.766 300.491 378.854 302.589C376.33 305.35 375.456 310.063 375.317 314.446C375.178 318.829 375.615 323.266 375.06 327.594C374.929 329.052 374.516 330.439 373.863 331.617C372.552 333.736 370.264 334.116 368.208 334.288C364.734 334.569 361.257 334.684 357.779 334.633C349.032 334.482 340.313 333.253 331.734 330.962C330.248 330.561 328.516 329.851 328.043 327.911C328.009 327.767 327.985 327.619 327.971 327.469C327.893 326.558 327.956 325.635 328.156 324.757L332.859 297.723C333.497 294.052 334.155 290.311 335.609 287.088C338.508 280.635 344.019 277.336 349.185 274.416L363.094 266.542C366.898 264.402 369.483 264.126 369.144 258.115C368.399 244.822 366.322 231.889 366.322 218.472C366.322 214.621 366.456 210.638 367.689 207.174C368.923 203.709 371.138 201.073 373.415 198.754C378.881 193.285 384.94 188.976 391.38 185.979C392.593 185.979 393.805 186.048 395.014 186.186C403.388 187.055 411.365 190.665 415.621 199.92C417.898 204.862 418.705 210.728 419.466 216.45C419.811 219.093 420.155 221.757 420.494 224.421C421.24 230.474 421.923 236.589 422.473 242.717C422.792 246.278 423.049 249.84 423.275 253.449Z" fill="#25233A"/>
<path d="M423.275 253.449C422.855 264.473 420.755 275.264 417.107 285.156C415.755 288.759 414.227 292.238 412.532 295.57C409.402 297.358 405.634 297.337 402.144 297.406C396.65 297.518 391.169 298.15 385.742 299.297C383.305 299.808 380.766 300.491 378.854 302.589C378.854 302.589 382.046 278.903 395.066 270.924C408.086 262.946 422.473 242.703 422.473 242.703C422.792 246.279 423.049 249.84 423.275 253.449Z" fill="#3F3D56"/>
<path d="M137.525 204.503C137.454 204.42 137.388 204.33 137.322 204.241L137.367 204.296C137.426 204.356 137.479 204.425 137.525 204.503Z" fill="url(#paint19_linear)"/>
<path opacity="0.24" d="M131.832 193.522C131.832 193.522 132.578 204.627 134.49 207.45C132.051 204.211 130.141 200.325 128.882 196.041C128.882 196.041 136.433 122.194 144.996 109.012L147.566 110.84L131.832 193.522Z" fill="white"/>
<path opacity="0.24" d="M243.384 133.657L243.503 141.249L236.121 166.199L213.566 182.072L212.302 179.898L234.718 163.569C234.718 163.569 241.714 144.244 243.384 133.657Z" fill="white"/>
<path opacity="0.24" d="M199.873 193.46L199.492 196.179L173.833 193.612C166.729 192.791 159.759 186.268 158.875 176.737L150.018 134.637C149.618 132.91 149.55 131.075 149.82 129.302C150.089 127.53 150.688 125.878 151.56 124.499C151.56 124.499 159.831 176.606 162.869 181.272C165.906 185.937 171.694 188.732 171.694 188.732L199.873 193.46Z" fill="white"/>
<path opacity="0.24" d="M142.714 275.141L128.913 333.667L126.856 332.48L138.633 270.227C138.633 270.227 134.048 253.291 130.676 240.93C127.437 229.08 131.842 205.6 132.218 203.709L133.981 206.159C133.981 206.159 129.355 233.945 135.307 247.155C141.259 260.365 142.714 275.141 142.714 275.141Z" fill="white"/>
<path opacity="0.24" d="M250.981 207.74C249.947 207.387 248.935 206.925 247.954 206.359C247.32 205.995 246.747 205.467 246.265 204.805C245.784 204.144 245.405 203.361 245.149 202.502C244.893 201.643 244.766 200.725 244.774 199.8C244.783 198.875 244.927 197.961 245.199 197.111V197.008C246.653 192.591 246.694 186.2 246.561 180.306C246.258 166.751 243.703 152.099 243.513 145.97C243.389 142.07 243.857 136.542 244.71 131.021L246.324 121.849C246.324 121.849 244.844 136.729 244.464 140.807C244.083 144.886 247.548 168.11 248.838 171.478C250.128 174.846 247.866 194.668 248.17 199.375C248.473 204.082 250.981 207.74 250.981 207.74Z" fill="white"/>
<path opacity="0.24" d="M279.607 330.955L277.505 332.335C277.263 330.713 272.766 300.863 266.428 279.234C261.694 263.104 259.411 230.232 258.522 213.447L261.128 214.137C261.128 214.137 264.994 256.996 269.239 272.843C273.485 288.689 279.607 330.955 279.607 330.955Z" fill="white"/>
<path opacity="0.24" d="M278.332 177.828L271.516 207.305L269.974 206.912L269.671 206.774L276.071 179.167C276.071 179.167 267.692 148.151 266.273 138.599C265.822 135.437 265.799 132.192 266.207 129.02C266.412 127.372 266.984 125.846 267.847 124.642C268.711 123.439 269.825 122.614 271.044 122.277C271.044 122.277 266.417 126.604 267.826 136.17C269.666 148.462 278.332 177.828 278.332 177.828Z" fill="white"/>
<path opacity="0.24" d="M262.752 114.671L252.097 160.056L250.051 162.837L260.856 113.677L260.897 108.756L262.269 110.64V110.647L262.752 114.671Z" fill="white"/>
<path d="M128.424 331.32L125.469 338.54L128.44 340.824L129.545 339.637L134.336 345.559C134.336 345.559 136.047 347.146 140.236 347.146C144.426 347.146 145.253 346.339 145.253 346.339C145.253 346.339 145.253 338.057 140.113 338.436C134.973 338.816 134.618 334.889 134.618 334.889L128.424 331.32Z" fill="#68E1FD"/>
<path d="M161.126 335.655L160.643 346.325H164.241V342.322L169.124 346.325L181.198 346.283C181.198 346.283 181.198 335.241 175.77 335.82C170.342 336.4 168.153 335.82 168.153 335.82L167.294 334.281L161.126 335.655Z" fill="#68E1FD"/>
<path d="M285.323 330.789L285.837 341.452H282.239V337.422L277.392 341.466L265.317 341.507C265.317 341.507 265.317 330.465 270.709 331.01C276.101 331.555 278.327 331.01 278.327 331.01L279.175 329.464L285.323 330.789Z" fill="#68E1FD"/>
<path d="M245.965 330.92L246.479 341.576H242.881V337.546L238.002 341.632L225.928 341.673C225.928 341.673 225.928 330.63 231.32 331.176C236.712 331.721 238.938 331.176 238.938 331.176L239.786 329.63L245.965 330.92Z" fill="#68E1FD"/>
<path d="M128.424 331.32L125.469 338.54L128.44 340.824L129.545 339.637L134.336 345.559C134.336 345.559 136.047 347.146 140.236 347.146C144.426 347.146 145.253 346.339 145.253 346.339C145.253 346.339 145.253 338.057 140.113 338.436C134.973 338.816 134.618 334.889 134.618 334.889L128.424 331.32Z" fill="url(#paint20_linear)"/>
<path d="M161.126 335.655L160.643 346.325H164.241V342.322L169.124 346.325L181.198 346.283C181.198 346.283 181.198 335.241 175.77 335.82C170.342 336.4 168.153 335.82 168.153 335.82L167.294 334.281L161.126 335.655Z" fill="url(#paint21_linear)"/>
<path d="M285.323 330.789L285.837 341.452H282.239V337.422L277.392 341.466L265.317 341.507C265.317 341.507 265.317 330.465 270.709 331.01C276.101 331.555 278.327 331.01 278.327 331.01L279.175 329.464L285.323 330.789Z" fill="url(#paint22_linear)"/>
<path d="M245.965 330.92L246.479 341.576H242.881V337.546L238.002 341.632L225.928 341.673C225.928 341.673 225.928 330.63 231.32 331.176C236.712 331.721 238.938 331.176 238.938 331.176L239.786 329.63L245.965 330.92Z" fill="url(#paint23_linear)"/>
</g>
<defs>
<linearGradient id="paint0_linear" x1="148.137" y1="157.647" x2="91.1441" y2="172.362" gradientUnits="userSpaceOnUse">
<stop stop-opacity="0"/>
<stop offset="0.91" stop-opacity="0.8"/>
<stop offset="1"/>
</linearGradient>
<linearGradient id="paint1_linear" x1="13267.1" y1="15484.3" x2="14842.4" y2="15038.3" gradientUnits="userSpaceOnUse">
<stop stop-opacity="0"/>
<stop offset="0.91" stop-opacity="0.8"/>
<stop offset="1"/>
</linearGradient>
<linearGradient id="paint2_linear" x1="250.036" y1="113.946" x2="261.031" y2="113.946" gradientUnits="userSpaceOnUse">
<stop stop-color="#ECC4D7"/>
<stop offset="0.42" stop-color="#EFD4D1"/>
<stop offset="1" stop-color="#F2EAC9"/>
</linearGradient>
<linearGradient id="paint3_linear" x1="4764.29" y1="7923.33" x2="4037.01" y2="8559.24" gradientUnits="userSpaceOnUse">
<stop stop-color="#ECC4D7"/>
<stop offset="0.42" stop-color="#EFD4D1"/>
<stop offset="1" stop-color="#F2EAC9"/>
</linearGradient>
<linearGradient id="paint4_linear" x1="11126.8" y1="17281.3" x2="12181.5" y2="17281.3" gradientUnits="userSpaceOnUse">
<stop stop-color="#ECC4D7"/>
<stop offset="0.42" stop-color="#EFD4D1"/>
<stop offset="1" stop-color="#F2EAC9"/>
</linearGradient>
<linearGradient id="paint5_linear" x1="7207.47" y1="10043.2" x2="7625.5" y2="9867.91" gradientUnits="userSpaceOnUse">
<stop stop-color="#ECC4D7"/>
<stop offset="0.42" stop-color="#EFD4D1"/>
<stop offset="1" stop-color="#F2EAC9"/>
</linearGradient>
<linearGradient id="paint6_linear" x1="5686.68" y1="14149.4" x2="9230.97" y2="16723.9" gradientUnits="userSpaceOnUse">
<stop stop-opacity="0"/>
<stop offset="0.91" stop-opacity="0.8"/>
<stop offset="1"/>
</linearGradient>
<linearGradient id="paint7_linear" x1="8113.87" y1="21656.2" x2="8448.68" y2="21709.2" gradientUnits="userSpaceOnUse">
<stop stop-color="#ECC4D7"/>
<stop offset="0.42" stop-color="#EFD4D1"/>
<stop offset="1" stop-color="#F2EAC9"/>
</linearGradient>
<linearGradient id="paint8_linear" x1="6413.48" y1="5169.53" x2="6279.2" y2="5710.27" gradientUnits="userSpaceOnUse">
<stop stop-color="#ECC4D7"/>
<stop offset="0.42" stop-color="#EFD4D1"/>
<stop offset="1" stop-color="#F2EAC9"/>
</linearGradient>
<linearGradient id="paint9_linear" x1="4173.06" y1="3203.99" x2="4157.61" y2="3311" gradientUnits="userSpaceOnUse">
<stop stop-color="#ECC4D7"/>
<stop offset="0.42" stop-color="#EFD4D1"/>
<stop offset="1" stop-color="#F2EAC9"/>
</linearGradient>
<linearGradient id="paint10_linear" x1="7716.89" y1="10319.9" x2="8126.49" y2="10319.9" gradientUnits="userSpaceOnUse">
<stop stop-color="#ECC4D7"/>
<stop offset="0.42" stop-color="#EFD4D1"/>
<stop offset="1" stop-color="#F2EAC9"/>
</linearGradient>
<linearGradient id="paint11_linear" x1="7425.21" y1="-18488.2" x2="7153.01" y2="-4750.62" gradientUnits="userSpaceOnUse">
<stop stop-opacity="0"/>
<stop offset="0.91" stop-opacity="0.8"/>
<stop offset="1"/>
</linearGradient>
<linearGradient id="paint12_linear" x1="2841.16" y1="17257.7" x2="2235.12" y2="4715.24" gradientUnits="userSpaceOnUse">
<stop stop-opacity="0"/>
<stop offset="0.91" stop-opacity="0.8"/>
<stop offset="1"/>
</linearGradient>
<linearGradient id="paint13_linear" x1="154.994" y1="104.85" x2="150.68" y2="133.977" gradientUnits="userSpaceOnUse">
<stop stop-opacity="0"/>
<stop offset="0.44" stop-opacity="0.35"/>
<stop offset="0.91" stop-opacity="0.8"/>
<stop offset="1"/>
</linearGradient>
<linearGradient id="paint14_linear" x1="1677.25" y1="9332.84" x2="1949.28" y2="9298.51" gradientUnits="userSpaceOnUse">
<stop stop-opacity="0"/>
<stop offset="0.91" stop-opacity="0.8"/>
<stop offset="1"/>
</linearGradient>
<linearGradient id="paint15_linear" x1="2274.73" y1="8028.78" x2="2082.96" y2="8027.19" gradientUnits="userSpaceOnUse">
<stop stop-opacity="0"/>
<stop offset="0.91" stop-opacity="0.8"/>
<stop offset="1"/>
</linearGradient>
<linearGradient id="paint16_linear" x1="78.8317" y1="183.956" x2="37.9854" y2="205.975" gradientUnits="userSpaceOnUse">
<stop stop-color="white" stop-opacity="0"/>
<stop offset="1" stop-color="#3F3D56"/>
</linearGradient>
<linearGradient id="paint17_linear" x1="12513.1" y1="10982.1" x2="8224.77" y2="24756.5" gradientUnits="userSpaceOnUse">
<stop stop-opacity="0"/>
<stop offset="0.91" stop-opacity="0.8"/>
<stop offset="1"/>
</linearGradient>
<linearGradient id="paint18_linear" x1="-62.1381" y1="235.891" x2="213.788" y2="318.092" gradientUnits="userSpaceOnUse">
<stop offset="0.17" stop-color="#00272E"/>
<stop offset="1" stop-color="#69B9EB" stop-opacity="0"/>
</linearGradient>
<linearGradient id="paint19_linear" x1="137.322" y1="204.372" x2="137.525" y2="204.372" gradientUnits="userSpaceOnUse">
<stop stop-color="#68E1FD"/>
<stop offset="1" stop-color="#69B9EB"/>
</linearGradient>
<linearGradient id="paint20_linear" x1="5832.51" y1="12590" x2="5094.09" y2="12997.6" gradientUnits="userSpaceOnUse">
<stop stop-opacity="0"/>
<stop offset="0.91" stop-opacity="0.8"/>
<stop offset="1"/>
</linearGradient>
<linearGradient id="paint21_linear" x1="7418.82" y1="9602.8" x2="6959.25" y2="10128.4" gradientUnits="userSpaceOnUse">
<stop stop-opacity="0"/>
<stop offset="0.91" stop-opacity="0.8"/>
<stop offset="1"/>
</linearGradient>
<linearGradient id="paint22_linear" x1="10899.8" y1="9535.65" x2="11246.9" y2="9983.01" gradientUnits="userSpaceOnUse">
<stop stop-opacity="0"/>
<stop offset="0.91" stop-opacity="0.8"/>
<stop offset="1"/>
</linearGradient>
<linearGradient id="paint23_linear" x1="9073.09" y1="9519.51" x2="9897.78" y2="10232.5" gradientUnits="userSpaceOnUse">
<stop stop-opacity="0"/>
<stop offset="0.91" stop-opacity="0.8"/>
<stop offset="1"/>
</linearGradient>
<clipPath id="clip0">
<rect width="423.473" height="356.27" fill="white" transform="translate(0.526367)"/>
</clipPath>
</defs>
</svg>
