<svg width="30" height="44" viewBox="0 0 30 44" fill="none" xmlns="http://www.w3.org/2000/svg">
<path fill-rule="evenodd" clip-rule="evenodd" d="M2.33577 10.9272C1.84915 10.5872 1.3382 10.1501 0.80292 9.61589C0.267637 9.08168 0 8.45033 0 7.72185V1.5298C0 1.09271 0.145984 0.728478 0.437956 0.437086C0.729928 0.145694 1.09489 0 1.53285 0C1.63017 0 1.73966 0.0121412 1.86131 0.0364238C1.98297 0.0607065 2.14112 0.121412 2.33577 0.218543L27.8832 17.4106C28.5645 17.8477 29.0876 18.2726 29.4526 18.6854C29.8175 19.0982 30 19.6932 30 20.4702V23.5298C30 24.3068 29.8175 24.9018 29.4526 25.3146C29.0876 25.7274 28.5645 26.1523 27.8832 26.5894L2.33577 43.7815C2.14112 43.8786 1.98297 43.9393 1.86131 43.9636C1.73966 43.9879 1.63017 44 1.53285 44C1.09489 44 0.729928 43.8543 0.437956 43.5629C0.145984 43.2715 0 42.9073 0 42.4702V36.2781C0 35.5497 0.267637 34.9183 0.80292 34.3841C1.3382 33.8499 1.84915 33.4128 2.33577 33.0728L18.8321 22L2.33577 10.9272Z" fill="#E0E0E0"/>
</svg>
